<?xml version="1.0" encoding="UTF-8"?>
<svg xmlns="http://www.w3.org/2000/svg" xmlns:xlink="http://www.w3.org/1999/xlink" viewBox="0 0 1019.37 647.49">
  <defs>
    <style>.cls-1{fill:url(#linear-gradient);}.cls-2{fill:url(#linear-gradient-2);}.cls-3{fill:url(#linear-gradient-3);}.cls-4{fill:url(#linear-gradient-4);}.cls-5{fill:url(#linear-gradient-5);}.cls-6{fill:url(#linear-gradient-6);}.cls-7{fill:url(#linear-gradient-7);}.cls-8{fill:#c99e3d;}.cls-9{fill:#195934;}.cls-10{fill:#29784d;}.cls-11{fill:none;stroke:#29784d;stroke-linecap:round;stroke-miterlimit:10;stroke-width:5px;stroke-dasharray:1 10;}.cls-12{fill:#267e4e;}.cls-13{fill:#14594d;}.cls-14{fill:#247f4d;}.cls-15{fill:#227650;}.cls-16{fill:#6dcf65;}.cls-17{fill:#135a55;}.cls-18{fill:#66be92;}.cls-19{fill:#67c592;}.cls-20{fill:#fff;}.cls-21{fill:#68c095;}.cls-22{fill:#64c088;}.cls-23{fill:#6abc94;}.cls-24{fill:url(#linear-gradient-8);}.cls-25{fill:#142190;}.cls-26{fill:url(#linear-gradient-9);}.cls-27{fill:#151e73;}</style>
    <linearGradient id="linear-gradient" x1="385.13" y1="499.04" x2="517.85" y2="499.04" gradientUnits="userSpaceOnUse">
      <stop offset="0" stop-color="#2fea64"></stop>
      <stop offset="1" stop-color="#29784d"></stop>
    </linearGradient>
    <linearGradient id="linear-gradient-2" x1="25.56" y1="388.76" x2="552.8" y2="388.76" xlink:href="#linear-gradient"></linearGradient>
    <linearGradient id="linear-gradient-3" x1="683.08" y1="231.29" x2="686.66" y2="231.29" xlink:href="#linear-gradient"></linearGradient>
    <linearGradient id="linear-gradient-4" x1="528.47" y1="369.96" x2="736.27" y2="369.96" xlink:href="#linear-gradient"></linearGradient>
    <linearGradient id="linear-gradient-5" x1="395.35" y1="327.52" x2="975.52" y2="327.52" xlink:href="#linear-gradient"></linearGradient>
    <linearGradient id="linear-gradient-6" x1="649.64" y1="292.27" x2="657.26" y2="292.27" xlink:href="#linear-gradient"></linearGradient>
    <linearGradient id="linear-gradient-7" x1="389.81" y1="479.33" x2="547.71" y2="479.33" xlink:href="#linear-gradient"></linearGradient>
    <linearGradient id="linear-gradient-8" x1="526.72" y1="355.94" x2="626.17" y2="237.11" gradientUnits="userSpaceOnUse">
      <stop offset="0.62" stop-color="#d28869"></stop>
      <stop offset="0.98" stop-color="#5f4135"></stop>
    </linearGradient>
    <linearGradient id="linear-gradient-9" x1="552.92" y1="329.18" x2="604.35" y2="267.72" gradientUnits="userSpaceOnUse">
      <stop offset="0.35" stop-color="#1631ec"></stop>
      <stop offset="0.83" stop-color="#4dc6fa"></stop>
    </linearGradient>
  </defs>
  <g id="Layer_8_copy" data-name="Layer 8 copy">
    <path class="cls-1" d="M389.58,497.23a20.3,20.3,0,0,1-4,2.43,16.22,16.22,0,0,1-.43,3.57,229.27,229.27,0,0,1,85.45-9.74c16.63,1.29,32.27,6.21,46,16.2a6,6,0,0,0,1.3.55c-13-11.73-28.21-18.47-45.33-21-20.39-3-40.53-.77-60.56,3.07C404.75,493.69,397.61,495.45,389.58,497.23Z"></path>
    <path class="cls-2" d="M537.41,541.76c-13-13.87-29.14-23.13-46.51-30.18-25.59-10.39-52.38-12.4-79.49-8.88-9.49,1.23-18.87,3.31-28.25,5.37a19.84,19.84,0,0,1-16.6,9.73,18.34,18.34,0,0,1-9.44-2.59,9.67,9.67,0,0,1-1.75,1.16,10.23,10.23,0,0,1-10.28,7.55,11.25,11.25,0,0,1-4.85-1,6.78,6.78,0,0,1-5.26,2.22,6.94,6.94,0,0,1-4.61-1.59,5.26,5.26,0,0,1-8.48,0,47.33,47.33,0,0,1-5.66,2.34c-6.46,2.15-13.06,3.85-19.6,5.76l-.26-.83,3.06-1.31c13.68-5.82,25.11-14.45,32.46-27.54,12.09-21.52,10.68-43.18-1.36-64.09-11.14-19.34-34.63-18.85-46.82-9.69-6.64,5-10.09,11.6-8.72,20,1.45,8.88,7.28,14,15.59,16.47,5.73,1.68,11.34,1.25,15.61-3.5,3.9-4.33,4.32-9.54,2.5-14.9-1.25-3.71-3.74-5.23-6-4.87,1.1,1.64,3.58,3.69,3.48,5.61-.12,2.27-2,5.09-3.92,6.51-6.47,4.7-16.32.39-18-7.54s2.66-15.4,10.51-18.13c14.23-4.94,27.23.15,34,13.93,9.29,18.8,7.6,37.35-3.47,54.73-11.84,18.58-30.07,28.22-51,32.85-14.46,3.21-29.27,4.13-44.09,3.92-20.21-.29-40.34-1.11-59.91-7.23-18.63-5.82-36.45-13.26-52.38-24.66-23.93-17.12-40-40.14-49.62-67.71-10.91-31.28-15.75-63.42-11-96.47a145.87,145.87,0,0,1,17.45-50.88c19.43-34.67,48.53-58.33,84.68-73.78a208.43,208.43,0,0,1,67.05-16.14,222.07,222.07,0,0,1,47.31,1.22c23.05,3.22,45,10.2,66.11,19.83,39.84,18.16,74.09,43,97,81.36,2.12,3.54,4.55,6.89,7.29,11-1.26-10.56-1.35-20.16,1.92-29.56.31-.88-.4-2.37-1.06-3.28-2.8-3.82-5.65-7.61-8.67-11.26-15.56-18.79-33.64-35-52.72-50s-39.47-28.29-62.15-37.38c-36.74-14.71-74.93-18.46-114-13.44a222.74,222.74,0,0,0-89.6,31.39c-34.6,21.37-60.75,50.22-76.81,87.71-13.56,31.66-18.82,64.69-13.58,98.91C33.1,419,49.61,450,74.69,476.48,98.06,501.16,126,519,157.64,531.23c16.22,6.27,32.76,11.55,50.32,12.48,11.83.63,23.67,1.43,35.51,1.47,12.05.05,24.23.18,36.13-1.38,16-2.1,31.95-5.45,47.79-8.85,22.77-4.88,45.38-10.52,68.15-15.4,12-2.58,24.19-2.81,36.15,1,22,7,26.49,25.33,20,41.94-4,10.16-16.75,12.65-23.89,5a7.26,7.26,0,0,1-.87-9.3c2-3.16,5-4.66,9.26-4.65-5-1.68-9.4-.71-12.17,2.55-3.34,4-3.14,8.38-1,12.69,3.8,7.71,10.51,11.22,18.77,10.89,8.83-.35,16.31-3.82,19.95-12.64,2.86-6.91,2.55-14.09.89-21.25-2.24-9.64-8.4-16.31-16.53-21.37-11.68-7.26-24.67-10.5-38.19-11.25-8.78-.48-17.61.12-26.42.29l.29-.12a150.45,150.45,0,0,1,66.82-6,144.49,144.49,0,0,1,44.51,13.14c13.05,6.31,24.93,14.12,34.25,25.4,8.83,10.69,15.37,22.37,14.42,36.86-.52,7.77-2.91,14.86-9.15,20.06-12.65,10.53-34.58,9-45.76-3-8.36-9-7.14-24.41,2.53-32,4.55-3.56,9.89-3,13.07,1.34,2.54,3.49.76,7.77-3.51,8.29a20.22,20.22,0,0,1-3.66-.23,6.68,6.68,0,0,0,6.61,3.24c3.05-.3,5.58-1.63,6.46-4.64a9.11,9.11,0,0,0-2.33-9.39c-4.31-4.37-11.07-4.41-17-.09-11.64,8.51-12.3,28.86-1.15,38.14,9.36,7.79,20.22,11.07,32.36,10.39,18.42-1,30.91-16.93,32.31-32.43C554,566.56,548.09,553.15,537.41,541.76Z"></path>
    <path class="cls-3" d="M685.6,232.63c0-.09.08-.27.19-.63.2-.63.39-1.26.55-1.9l.32-1.26q-1.81,1.24-3.58,2.58a11.11,11.11,0,0,1,2,2.33c.15-.3.3-.61.44-.93Z"></path>
    <path class="cls-4" d="M729.43,400.43l2.73-2.19c1.22-4.17,2.81-8.28,3.57-12.53,2-11.12-1.52-20.71-9.3-28.68-9.15-9.39-20.75-14.1-33.42-16.17-19.87-3.24-39.21-.36-58.36,4.34a9.08,9.08,0,0,1-8.94,2.34c-.75.22-1.49.45-2.24.66-.09,0-.2-.06-.77-.27l1.21-1a8.67,8.67,0,0,1-4.59-4.54,129.28,129.28,0,0,1-22.19,16.46c-16.27,9.64-33.61,16.89-52.36,20.3a91.56,91.56,0,0,1-15.51,1.52,19.9,19.9,0,0,1-.79,7.56,215.46,215.46,0,0,1,57.74,8.86,6.27,6.27,0,0,1,1.12.58c8.2,3.32,15.87.26,23.6-1.95a17.69,17.69,0,0,0,2.17-.93l-17.58-3.31.07-1c34.93-7.18,68.88-16.37,93.79-44.57-6.61,1.73-12.93,1.08-19.33-1.12,4.94-5,10.85-4.71,16.76-3.89,5,.7,9.9,1.77,16,2.88-4.69,6.13-8.47,11.87-13,16.9-16.9,18.65-38.31,28.77-63,32.4a126.64,126.64,0,0,0-13.63,2.66c30.55,1.36,68.65-5.77,92.42-50.67,13.66,5.63,25.45,13.1,29,28.85,1.79,7.87.47,15.43-3.08,22.63C730.81,397.85,730.11,399.14,729.43,400.43Zm-57.14-47.05c-16.94,14.32-78.4,29.55-104.87,25.72l18.39-7.85a11.08,11.08,0,0,0,2.15-1c8.79-6.36,19-6.42,29.24-7.22,11.19-.86,22.33-2.85,33.41-4.77C658,357,665.26,355,672.29,353.38Z"></path>
    <path class="cls-5" d="M973.17,218c-4.69-19.52-16.21-34.81-31.08-47.7-21.81-18.93-47-30.47-76-32.73a94.19,94.19,0,0,0-39.57,5.61c-15.7,5.67-29.51,14.5-41.78,25.16l-9.16-2.13c.29-.95.53-1.92.88-2.84,4.74-12.36,3.85-24.5-1.57-36.4-7.65-16.78-27.06-21.54-39.12-17.3-13,4.58-19,17.44-14.25,30.28a5.47,5.47,0,0,1-.19,2.34,6.48,6.48,0,0,0-1.45,1q-7.8,8.63-15.55,17.27a44.12,44.12,0,0,1-15.19,16.76,40.69,40.69,0,0,1-8.62,4.06q8.36,1.13,16.68,2.49c15.65,2.57,30.24,0,44.48-6.13a52.44,52.44,0,0,0,19.68-14c8.1-9.53,9.22-23.44,2.5-33.25-.95-1.39-2.57-2.32-3.88-3.47,9.76,10.12,8.8,24.53,2.66,33.56-1.79,2.64-3.72,3.52-6.94,3.35-10.23-.53-20.48-.5-30.71-1-4.46-.22-7.31,1.75-9.59,5.16q-3.59,7.77-7.16,15.55l-.89-.41q3.89-7.69,7.78-15.4c.64-1.4,1.29-2.8,2-4.25-5.85-.2-5.93-.23-7.64,4.75s-3.28,10.12-4.9,15.18l-.93-.31c2.22-6.49,4-13.17,6.77-19.42,3.23-7.32,7.28-14.28,11-21.39a24.21,24.21,0,0,1,3,.62c3.13,1.06,6.17,3,9.33,3.16,7.18.44,12.27-6.07,11-13.79-.53.9-.91,1.52-1.25,2.15-2.55,4.67-6,6.34-9.82,4.81-4-1.59-6.39-6.84-5.08-11.28.34-1.17.69-2.34,1-3.5a9.93,9.93,0,0,0,1.21,14.05q6.1,5.37,12.56-1.73c-.3,6.42-7.21,10.15-14.19,7.67C722,142,718.78,135,721.05,126.91c3.79-13.44,17-20.49,31.19-16.91,15,3.76,22.46,14.09,25.42,28.41a44.16,44.16,0,0,1-1,21.71c-4.68,15.79-16.49,23.21-31.48,26.76a108.78,108.78,0,0,1-40.32,1.55c-11-1.53-21.85-3.44-32.78-5.09-.82.12-1.64.21-2.47.28,0,2.38,0,4.76,0,7.15,0,1.29,0,2.59,0,3.89.87,0,1.74,0,2.62,0l-2.64.89c-.18,6.45-1.15,12.88-4.3,18.63-.15.28-.33.55-.49.83a38.44,38.44,0,0,1,.69,6.3,93.68,93.68,0,0,1,24.69-16.15,11.75,11.75,0,0,1,9.56,0,104.64,104.64,0,0,1,3.09-15.66l2.88.4c-1.27,5.68-2.67,11.23-3.8,16.8a8.14,8.14,0,0,1,2.22,4.14c3.69,16.63.9,32.14-11.75,44.13-3.33,3.16-6.94,6-10.51,8.86a10.18,10.18,0,0,1,6.18,8.9c.05.95.05,1.88.05,2.81,1.85-3.7,3.69-7.4,5.57-11.09.48-.94,1-1.86,1.8-3.3-2.41,7.44-5,14.71-7.94,21.72-2.49,17.09-12.75,32.23-22.25,46.45-4.06,6.08-10.61,5.54-14.39,1.84a61.37,61.37,0,0,1-8.51,4.13l-1,1.46c11.93-3.13,24-2.43,36.1-1.79a94.09,94.09,0,0,1,38.65,11A42.91,42.91,0,0,1,730.89,358a6.88,6.88,0,0,0,1.48,1.17c-3.41-3.63-6.43-7.78-10.34-10.76-4.15-3.16-9.14-5.21-14.12-7.94,11.14-21.34,20.85-43.78,34.53-64.4,5,5.56,10.91,7.87,18,5.47,8.85-3,15.41-8.52,17.85-17.83,2.15-8.23.43-16.09-3.74-23.81A71.22,71.22,0,0,1,803,226.14a17.18,17.18,0,0,1,.3,12.16c-1.08,3.18-3.89,4.5-6.69,3.55s-4.09-3.85-3-6.94a51.18,51.18,0,0,1,2.73-5.63c-5.14,1.7-8.47,8.88-6.3,13.63a7.6,7.6,0,0,0,11.9,2.88c4.5-3.6,6.16-8.47,5.82-14.1-.12-2-.41-4-.72-6.94,6.41-.17,12.79-.83,19.1-.4,12.41.86,23.28,5.37,30.86,15.8,6.65,9.15,9.33,19.21,4.36,29.9-5.1,10.95-13.26,18.66-26,19.48-10.84.69-19.62-3.66-25.61-12.83a16.11,16.11,0,0,1,.93-19.25,12.48,12.48,0,0,1,17.3-2c2.85,2.32,4,6.12,2.55,9.05a5.93,5.93,0,0,1-2.78,2.69,4,4,0,0,1-3.31-.56c-.49-.38-.09-1.93-.09-3.68-.81,1.1-1.94,2-1.8,2.58a5.26,5.26,0,0,0,2,3.17c4,2.32,8.94-1.41,9.4-6.89.64-7.65-7.37-14.38-15.4-12.94-16.39,2.94-18.76,19.27-13.27,29.64,7.87,14.88,25.89,20.34,41.8,12.73,21.66-10.36,27.62-36.44,12.54-55.69-10.14-12.94-23.76-19.42-40.08-20.11-4.82-.2-9.67.51-14.51.65a3.63,3.63,0,0,1-2.72-1c-7.75-11.11-18.78-15.28-31.83-15.31h-5.9a124.29,124.29,0,0,1,19.9-18.95,2.11,2.11,0,0,1,1.47-.41c19.69,3.4,39,8,57.09,16.91,35.78,17.63,60.63,45.27,74.88,82.34,10.17,26.44,14.89,53.9,12.13,82.25-3.3,33.94-17.52,62.94-41.4,87.15-27.31,27.69-60.86,44.17-98.14,53.76a255.9,255.9,0,0,1-78.2,7.35,200.17,200.17,0,0,1-77.6-20.42,4.39,4.39,0,0,1-2-2.93,57.42,57.42,0,0,0-11.87-28.66l-1.8-2.31-.7.58c1.29,1.74,2.64,3.42,3.84,5.21,7,10.31,11,21.54,9.08,34.07-2.2,14.2-16.77,27.87-33.6,21.36-10.53-4.07-15.57-14.71-11.7-24.94a13.23,13.23,0,0,1,12.36-8.91,12.63,12.63,0,0,1,12.26,7.39,17.43,17.43,0,0,1,.63,2.41l-1.53-1.85c-3.68-4.24-9.48-5.46-13.67-2.88-4.67,2.88-6.29,8.1-4.21,13.56,4,10.55,18.2,14.49,28.23,7.84a21.14,21.14,0,0,0,9.42-14.28c2.26-12.29-1.17-23.09-8.84-32.72l-.3.27c2.64,5.68,5.4,11.3,7.83,17.06.84,2,.85,4.32,1.36,7.2-26.71-13.94-49.37-31.9-69.74-52.9.07-.33.13-.66.19-1,5.9.83,11.89,1.26,17.67,2.6s11.21,3.57,16.8,5.4l.3-.78c-5.37-1.83-10.61-4.35-16.13-5.38a173.55,173.55,0,0,0-66.14.25c-13.85,2.77-27.72,5.45-41.73,7.71,7.51-2.24,15-4.67,22.54-6.68A230.47,230.47,0,0,1,561.52,429c11,.43,21.15,4,31.08,8.41.81.36,1.63.69,2.45,1,.07,0,.19-.09,1.09-.57l-16.32-6.65.1-.59L598,435a58.11,58.11,0,0,0-2.29,6.13c-1.3,5.11,1.46,9.14,6.72,9.48,8.71.57,16.12-2.3,20.76-9.95s3.91-15.48-1.36-22.75c-6-8.31-14.91-12.43-24.06-16.1-3.52-1.42-7.13-2.6-10.7-3.89-8.76-1.94-17.47-4.23-26.3-5.75A216.54,216.54,0,0,0,528.19,389a20.74,20.74,0,0,1-2.69,5.31c4.72-.22,9.47-.26,14.23-.18a187.08,187.08,0,0,1,43.43,5.6,4.69,4.69,0,0,1,1.18.64c-5.55-1-11.08-2.16-16.66-2.86-9.36-1.19-18.77-2-28.16-3,0,.33-.09.65-.14,1l7.08,1.71c-5.74,1-10.59,2-15.48,2.52-1.05.12-2.61-1.13-3.33-2.17a5.16,5.16,0,0,0-2.91-2.2,14.86,14.86,0,0,1-9.13,5.59c-3.4.55-6.8,1.23-10.21,2l-.68.67,1.53,2.2L500.94,408a2,2,0,0,0-.19.24c-1.12,1.54-2.22,3.1-3.34,4.64l-.65.88q4.25-1.58,8.55-3c2.81-.93,4.52-.66,6.12,1.92,1.78,2.86,4,5.46,6.32,8.67a284.36,284.36,0,0,0-40.7,11.62,85.38,85.38,0,0,1-16.64,6.69q-7.1,3.09-14.05,6.5l-.24.39c-.25.38-.52.74-.79,1.1,9.36-4.6,19-8.74,28.74-12.52,18.42-7.1,37.34-12.4,57-14.7,28.14-3.29,55.27.26,81,12.73a9.3,9.3,0,0,0,3.56,1.11,6.32,6.32,0,0,0-1.22-1.11A134.41,134.41,0,0,0,562,418.75c-5.06-.33-10.14-.39-15.21-.65a3.78,3.78,0,0,1-2.42-.74c-3.89-4.36-7.66-8.82-11.84-13.67,17.9-3.45,35.3-4.43,52.77-2.11-.21-.32-.44-.69-.67-1.06,9.42,1.88,18.49,4.71,25.65,11.45a23.09,23.09,0,0,1,4.6,26.75,15.52,15.52,0,0,1-4,4.87,5.84,5.84,0,0,1-7.69-.67,6,6,0,0,1-.37-8,8.8,8.8,0,0,0,2-2.89l-6.8,3v0a8.68,8.68,0,0,0-2.56-1.82,172.37,172.37,0,0,0-49.55-5.32,241.31,241.31,0,0,0-71.37,13.19,296.54,296.54,0,0,0-50.82,23.05A90,90,0,0,1,409,473.52a18.83,18.83,0,0,1-2.25,1c-2.25,1.47-4.49,3-6.71,4.49,1.18-1.17,2.33-2.39,3.46-3.62a23,23,0,0,1-8.14,0,20.76,20.76,0,0,1,1.57,7.05,16.19,16.19,0,0,1-.26,3.63c2.39-1.82,4.83-3.57,7.28-5.29C443.56,453,487,441.49,535.11,450c2.83.5,6.41.61,8.22,2.36,9.57,9.22,18.69,18.92,28.1,28.58-1.6,2.8-3.71,5.67-7.64,4.86a6.49,6.49,0,0,1-4.15-3.72c-1.2-4,2.75-4.43,5.39-5.67-4.38-3.08-10.13-1.32-9.89,5.6A10.29,10.29,0,0,0,565,492c5.41.37,9.22-2.29,12.57-6.42a47.35,47.35,0,0,0,4.53,3.67c2.34,1.47,2.51,3.1,2.14,5.83a24.4,24.4,0,0,0,.87,10.92c4.24,12.14,20,17.37,32,10.9,1.88-1,3.22-1.24,5.22-.11a224.52,224.52,0,0,0,48.25,20.06,254.66,254.66,0,0,0,63.33,9.84,248.56,248.56,0,0,0,84-11.54c47.58-15.35,86.73-42.18,112.86-85.61,22.37-37.2,31.3-77.65,25-120.8-5.33-36.28-22.11-67.19-47.31-93.56-28.65-30-63.49-49.83-103-61.84-2.6-.79-5.27-1.31-7.73-1.91-.14.15,0-.06.16-.17,28.64-17.62,59.43-25.66,92.79-18.66,29.48,6.18,53.76,21.34,70.79,46.64,11.35,16.87,14.74,35.44,8.71,55.19-3.26,10.7-13.1,14.91-23.42,10.51s-18.11-19.35-15.71-32.16c1-5.38,6.45-7.4,11.38-4.58.82.47,1.55,1.07,2.33,1.6-2.67-3.29-5.47-6.5-10.26-5.6-4.58.86-6.62,4.23-7.8,8.39C922.6,247,936.26,267.2,951.39,269c8.74,1.05,15.92-3.43,20.05-12.87C976.9,243.7,976.25,230.82,973.17,218ZM716,170.42l.71.16c-.92,3.94-1.83,7.89-2.9,12.46l15-2.34c0,.25.07.5.11.75l-16.37,3ZM715.28,318c-3,6.56-6.36,12.95-9.49,19.45-.82,1.7-1.63,2.12-3.65,1.48-5.33-1.7-10.79-3-16.74-4.52A107.79,107.79,0,0,0,707,307.87a134.23,134.23,0,0,0,12.95-31.73c-7.28,11.9-15.25,22.92-30.38,26.38L701.15,288l0-.06c.66-.06,1.49.07,1.91-.28a124.47,124.47,0,0,0,26.45-31.31c4.59-7.72,8.8-15.68,13-23.64,1.23-2.36,2.5-2.82,4.74-1.7,2.47,1.23,5,2.37,7.5,3.54l5.55,5.94C748.26,251.34,740.23,265,733,279,726.39,291.65,721.22,305,715.28,318Zm-14-30.41c1.83-4,3.86-8,5.39-12.16,1.59-4.31,2.43-8.89,4-13.21,3.2-8.86,6.65-17.63,10-26.41a3.07,3.07,0,0,1,1.26-1.51,37.85,37.85,0,0,1,16.8-4.83c-4.1,8.72-7.71,17-11.83,25.06a102.65,102.65,0,0,1-20.4,26.77A69.6,69.6,0,0,0,701.32,287.63Zm63.07-39.92,1.13.6c3.45,8.73,5,17.48-.66,26-2.46,3.7-6.32,5-10.57,4.68-3.85-.28-6.38-2.65-7.68-6.19a3.71,3.71,0,0,1,.16-3C752.56,262.37,758.5,255.06,764.39,247.71Zm9.66,22.9c-5,7-11.75,11.08-20.69,10.58a13.19,13.19,0,0,1-11.22-8.47c-1.56-4.74.93-8.93,5.73-9.63-4.16,5.51-3.7,11.06,1.24,15,4.5,3.54,12.88,2.11,16.58-3.07,4.22-5.88,4.75-12.57,3.17-19.39-2.05-8.79-6.21-16.3-14.21-21.15l.07.07c-5.09-5-11.46-6.48-18.19-5.8-10.87,1.1-19.74,6.52-27.38,14.1a42.49,42.49,0,0,1-4.52,4.19c8.24-12,17.61-22.76,33.41-23.86,13.71-1,25.59,3.52,34.07,14.87C779.6,248,780.41,261.77,774.05,270.61Zm-45.31-47.05c2.4-5.72,12.1-13.5,23.59-18.39-3.26,5.52-6.17,10.56-9.26,15.49a4.09,4.09,0,0,1-2.66,1.39C736.45,222.67,732.47,223.1,728.74,223.56Zm40.53-21.75c11.11-.31,20.81,2.32,27.78,11.66.8,1.07,1.53,2.2,2.62,3.79a84.75,84.75,0,0,0-29.59,14.84l-21.49-10.55c2.93-4.27,6.57-9.09,9.67-14.24C760.88,203,764.56,201.93,769.27,201.81Zm-11-4.47a18.34,18.34,0,0,1-8.4,6.07c-15,5.44-26.49,15.55-35.9,28.2-.39.52-.76,1-1.62,2.24-1.42-14.93-2.37-29.08-.37-43.5,4.27,0,8.32.06,12.36,0,11.46-.19,22.64-1.87,33.15-6.73,2.13-1,4.08-2.38,6.21-3.38,1.24-.59,2.76-1.27,4-1a6.76,6.76,0,0,0,7.33-2.76c1.89-2.51,4-4.88,6-7.32l.78.83C773.92,179,765.91,188,758.3,197.34ZM592.05,497.45l20.3,13.77C604.12,514.64,592.39,506.86,592.05,497.45ZM472.19,444.6c16.91-3.53,33.91-6.66,50.86-10,3.06-.61,5.53-.6,7.48,2.54,1.69,2.73,4.08,5,6.43,7.84-28.93-4.06-56.94-1.35-84.58,6.32-.09-.37-.18-.74-.28-1.11C458.79,448.29,465.4,446,472.19,444.6ZM567.76,491c-6.33,1.26-12.3-4-11.69-10.18.34-3.46,2.18-5,6.21-4.86-4.29,3.15-5,5.73-2.6,8.67,2.5,3.12,6.55,3.25,9.85.36,3.8-3.32,4.15-7.61,3.19-12.09-1.59-7.43-6.29-12.54-12.72-16.28-8-4.62-16.79-6.38-25.66-7.91a174.46,174.46,0,0,0-43.17-2,164.19,164.19,0,0,0-65.71,19.76c-7.29,3.94-14.33,8.35-21.8,12.14,2.53-1.81,4.95-3.82,7.62-5.38,10.2-6,20.09-12.69,30.86-17.37,9.06-3.94,19.09-5.89,28.85-7.9a185.36,185.36,0,0,1,54.5-3.33c14.68,1.34,29,4.11,41.6,12.57,6,4.05,10.39,9.29,11.77,16.66C580.34,481.76,575.33,489.54,567.76,491Z"></path>
    <path class="cls-6" d="M653.3,289.78a8.8,8.8,0,0,1-1.95-.13c-.28,1-.57,2-.89,3-.26.83-.55,1.63-.82,2.45a49.08,49.08,0,0,1,7.62-5.75A34.48,34.48,0,0,1,653.3,289.78Z"></path>
    <path class="cls-7" d="M389.81,497.05c5-2.35,9.23-4.29,13.41-6.37,23.48-11.71,47.6-21.59,73.61-26.22,12.34-2.2,24.66-4.48,37.23-1.65,8.22,1.85,16.24,4.14,22.14,10.72s5.07,19.12-1.66,25.24c-6,5.46-16.58,4.38-22.9-2.33-5.2-5.52-5-11.77.59-16.92a10.9,10.9,0,0,1,1.8-1.12l-1-1.24c-2.92,1.77-6.18,3.16-8.69,5.38-5.07,4.49-4.1,12.09,1.75,16.75,8.19,6.53,23.48,7,32.22,1.1,5.68-3.86,9.15-9.07,9.35-16,.19-6.57-2.74-12-7.14-16.66-9.58-10.21-22-13.44-35.31-13.59-23.08-.25-45.35,4.87-66.55,13.41-14.57,5.88-28.2,14.09-42.24,21.28l-.72.38A19.26,19.26,0,0,1,389.81,497.05Z"></path>
  </g>
  <g id="Layer_11" data-name="Layer 11">
    <path class="cls-8" d="M219.3,368.3c-.14,1.27-.23,2.49-.28,3.68s-.07,2.09-.07,2.72c0,.8,0,1.55.05,2.25s.06,1.32.1,1.85H218a31.84,31.84,0,0,0-.95-5.52,4.85,4.85,0,0,0-2.1-2.93,9.31,9.31,0,0,0-4.65-.9H207.1a8.88,8.88,0,0,0-2.58.28,1.71,1.71,0,0,0-1.17,1.15,9,9,0,0,0-.3,2.72v24.8a7.41,7.41,0,0,0,.37,2.7,2.07,2.07,0,0,0,1.48,1.2,15.3,15.3,0,0,0,3.2.4v1c-.87-.06-2-.11-3.3-.12s-2.69,0-4.05,0-2.52,0-3.65,0-2,.06-2.75.12v-1a9.93,9.93,0,0,0,2.57-.4,1.8,1.8,0,0,0,1.18-1.2,9.1,9.1,0,0,0,.3-2.7V373.6a9,9,0,0,0-.3-2.72,1.84,1.84,0,0,0-1.18-1.2,8.56,8.56,0,0,0-2.57-.38v-1c1.23,0,2.53.06,3.9.08l4.05.05,3.72,0h2.83l5.22,0C216,368.41,217.76,368.37,219.3,368.3Zm-7.75,17.6v1h-10v-1Zm.95-6.6c-.14,1.9-.19,3.35-.18,4.35s0,1.92,0,2.75,0,1.75.05,2.75.11,2.45.25,4.35H211.5c-.14-1.06-.29-2.1-.48-3.12a4.7,4.7,0,0,0-1.2-2.5,4.16,4.16,0,0,0-3.12-1v-1a4,4,0,0,0,2.52-.67,3.88,3.88,0,0,0,1.28-1.73,10,10,0,0,0,.55-2.17c.1-.75.2-1.43.3-2Z"></path>
    <path class="cls-8" d="M229.75,364.5v34.55a3.67,3.67,0,0,0,.87,2.85,4.5,4.5,0,0,0,2.93.75v1.05l-2.58-.12c-1.15-.05-2.31-.08-3.47-.08s-2.29,0-3.45.08l-2.6.12v-1.05a4.49,4.49,0,0,0,2.92-.75,3.67,3.67,0,0,0,.88-2.85V370.5a5.58,5.58,0,0,0-.8-3.32,3.55,3.55,0,0,0-3-1.08v-1.05c1.06.1,2.1.15,3.1.15a22.4,22.4,0,0,0,2.77-.17A14,14,0,0,0,229.75,364.5Z"></path>
    <path class="cls-8" d="M247.85,377.25a11.79,11.79,0,0,1,5.75,1.4,10,10,0,0,1,4.07,4.4,20.6,20.6,0,0,1,0,15.58A10,10,0,0,1,253.6,403a12.47,12.47,0,0,1-11.48,0,10,10,0,0,1-4.1-4.37,20.72,20.72,0,0,1,0-15.58,10,10,0,0,1,4.1-4.4A11.85,11.85,0,0,1,247.85,377.25Zm0,1a5.41,5.41,0,0,0-4.68,2.95c-1.22,2-1.82,5.19-1.82,9.65s.6,7.68,1.82,9.63a5.2,5.2,0,0,0,9.35,0q1.83-2.93,1.83-9.63t-1.83-9.65A5.38,5.38,0,0,0,247.85,378.25Z"></path>
    <path class="cls-8" d="M272.1,378V379a11.85,11.85,0,0,0-2.2.18,1.5,1.5,0,0,0-1.25,1,5.25,5.25,0,0,0,.45,3l5.2,14.9-.35-.05,7.35-20.3,1,.4L273.15,404h-.85l-8.2-22.15a4.71,4.71,0,0,0-1.58-2.4,3.12,3.12,0,0,0-1.32-.4V378c.66.1,1.36.18,2.07.23s1.49.07,2.33.07c1,0,2.12,0,3.27-.1S271.1,378,272.1,378Zm27.45,0v1a3.15,3.15,0,0,0-1.78.83,6.12,6.12,0,0,0-1.47,2.67L289.05,404h-.85l-8.05-20.45,1.15-5.75h1.15l7.8,20.65-.4.3,4.95-15.05a6.5,6.5,0,0,0,.42-2.67,1.8,1.8,0,0,0-1-1.45,6.54,6.54,0,0,0-2.67-.58v-1l1.55.08,1.27.05,1.38,0c.76,0,1.45,0,2.07-.05Z"></path>
    <path class="cls-8" d="M312.85,377.25a8.88,8.88,0,0,1,6.87,2.68c1.65,1.78,2.48,4.56,2.48,8.32H304.55l-.05-.95h12.9a16.78,16.78,0,0,0-.4-4.52,7.89,7.89,0,0,0-1.58-3.33,3.49,3.49,0,0,0-2.77-1.25,5.12,5.12,0,0,0-4.08,2.3q-1.77,2.31-2.12,7.3l.15.2q-.11.75-.15,1.65c0,.6-.05,1.2-.05,1.8a14.07,14.07,0,0,0,1.1,5.85,8.94,8.94,0,0,0,2.87,3.73,6.24,6.24,0,0,0,3.68,1.27,8.44,8.44,0,0,0,2.85-.47,6.94,6.94,0,0,0,2.5-1.58,9.59,9.59,0,0,0,2-2.95l1,.4a10.39,10.39,0,0,1-1.8,3.2,9.7,9.7,0,0,1-3.15,2.53,9.54,9.54,0,0,1-4.4,1,11.23,11.23,0,0,1-6.18-1.65,10.76,10.76,0,0,1-3.95-4.57,15.74,15.74,0,0,1-1.37-6.73,18.54,18.54,0,0,1,1.4-7.57,11.14,11.14,0,0,1,3.95-4.9A10.36,10.36,0,0,1,312.85,377.25Z"></path>
    <path class="cls-8" d="M341.55,377.25a5,5,0,0,1,2.37.55,4.28,4.28,0,0,1,1.6,1.43,3.45,3.45,0,0,1,.58,2,3.35,3.35,0,0,1-.78,2.2,2.51,2.51,0,0,1-2.07,1,2.77,2.77,0,0,1-1.85-.67,2.36,2.36,0,0,1-.8-1.93,2.56,2.56,0,0,1,.52-1.62,4.44,4.44,0,0,1,1.18-1.08,1.22,1.22,0,0,0-1.05-.5,4.76,4.76,0,0,0-2.85.93,8.07,8.07,0,0,0-2.2,2.37,13,13,0,0,0-1.4,3.08,10.08,10.08,0,0,0-.5,3v10.6c0,1.64.47,2.73,1.42,3.28a7.74,7.74,0,0,0,3.88.82v1.05l-3.25-.12c-1.4-.05-2.89-.08-4.45-.08-1.14,0-2.26,0-3.38.08l-2.52.12v-1.05a4.49,4.49,0,0,0,2.92-.75,3.63,3.63,0,0,0,.88-2.85V383.4a5.58,5.58,0,0,0-.8-3.32,3.55,3.55,0,0,0-3-1.08V378c1.06.1,2.1.15,3.1.15a22.4,22.4,0,0,0,2.77-.17,13.83,13.83,0,0,0,2.43-.53v6.25a13.48,13.48,0,0,1,1.57-2.92,9.74,9.74,0,0,1,2.48-2.48A5.54,5.54,0,0,1,341.55,377.25Z"></path>
    <path class="cls-8" d="M357.2,377.25a8.12,8.12,0,0,1,3.4.65,10.35,10.35,0,0,1,2,1.2c1.1.9,1.76.3,2-1.8h1.15c-.07.94-.12,2-.15,3.33s0,3,0,5.17h-1.15a16.41,16.41,0,0,0-1-3.6,7.12,7.12,0,0,0-2.12-2.87,5.66,5.66,0,0,0-3.65-1.13,4.43,4.43,0,0,0-2.93,1,3.53,3.53,0,0,0-1.17,2.87,3.9,3.9,0,0,0,.9,2.58,10.32,10.32,0,0,0,2.35,2l3.15,2a39.3,39.3,0,0,1,3.45,2.45,11.12,11.12,0,0,1,2.47,2.75,6.62,6.62,0,0,1,.93,3.55,6.08,6.08,0,0,1-1.2,3.85,7.47,7.47,0,0,1-3.13,2.35,10.76,10.76,0,0,1-4.22.8,12.42,12.42,0,0,1-2.08-.17,9.78,9.78,0,0,1-1.87-.53,7.39,7.39,0,0,1-1-.6,12.13,12.13,0,0,1-1-.75.59.59,0,0,0-.9,0,3.24,3.24,0,0,0-.6,1.67H349.6q.09-1.59.15-3.9t.05-6.1H351a27.76,27.76,0,0,0,1,4.9,6.73,6.73,0,0,0,2.05,3.28,5.89,5.89,0,0,0,3.9,1.17,5,5,0,0,0,2-.45,4.05,4.05,0,0,0,1.73-1.5,5,5,0,0,0,.7-2.8,4.61,4.61,0,0,0-1.6-3.6,34.59,34.59,0,0,0-4.05-2.95c-1.2-.76-2.33-1.53-3.38-2.3a10.29,10.29,0,0,1-2.55-2.6,7,7,0,0,1,.05-7.17,6,6,0,0,1,2.73-2.1A9.79,9.79,0,0,1,357.2,377.25Z"></path>
    <path class="cls-8" d="M120.88,312.5v1.44a7.11,7.11,0,0,0-3.46,1.19,4.64,4.64,0,0,0-1.54,2.85,28.42,28.42,0,0,0-.4,5.47v40.17c-.58-.05-1.16-.07-1.76-.07s-1.24,0-1.91.07L80.56,324v27.65a32.28,32.28,0,0,0,.43,6.08,4.36,4.36,0,0,0,1.91,3A11.81,11.81,0,0,0,87.54,362v1.44q-1.37-.15-3.6-.18c-1.48,0-2.88,0-4.17,0-1.11,0-2.23,0-3.39,0a26.57,26.57,0,0,0-2.88.18V362A7.76,7.76,0,0,0,77,360.81,4.48,4.48,0,0,0,78.51,358a29.52,29.52,0,0,0,.39-5.43V320.13a14.38,14.38,0,0,0-.39-3.92,2.62,2.62,0,0,0-1.59-1.73,10.77,10.77,0,0,0-3.42-.54V312.5l2.88.15c1.16.05,2.28.07,3.39.07s2.25,0,3.31-.07L86,312.5l27.86,34.35V324.31a32.28,32.28,0,0,0-.43-6.08,4.44,4.44,0,0,0-1.91-3.06,10.77,10.77,0,0,0-4.64-1.23V312.5q1.36.08,3.6.15c1.49.05,2.88.07,4.18.07,1.15,0,2.29,0,3.42-.07Z"></path>
    <path class="cls-8" d="M141.83,325.25q6.34,0,9.94,3.74t3.6,12.24H131.68l-.14-1.37H146.3a35.2,35.2,0,0,0-.44-6.51,13.72,13.72,0,0,0-1.58-4.79,3.25,3.25,0,0,0-2.88-1.8q-2.52,0-4.28,3.17T135,340.44l.22.43c-.05.58-.09,1.18-.11,1.8s0,1.27,0,1.95a19.58,19.58,0,0,0,1.41,8.06,10.18,10.18,0,0,0,3.56,4.5,8,8,0,0,0,4.39,1.4,11.37,11.37,0,0,0,3.14-.46,10.19,10.19,0,0,0,3.27-1.73,13.07,13.07,0,0,0,3.1-3.57l1.29.43a18.48,18.48,0,0,1-2.73,5.33,15,15,0,0,1-4.75,4.25,13.71,13.71,0,0,1-6.92,1.66,17.49,17.49,0,0,1-8.64-2.09,14.3,14.3,0,0,1-5.86-6.34,24,24,0,0,1-2.13-10.8,24.56,24.56,0,0,1,2.27-11.16,15.27,15.27,0,0,1,6.26-6.66A18.66,18.66,0,0,1,141.83,325.25Z"></path>
    <path class="cls-8" d="M173.51,377a38,38,0,0,1-7.95-.76,13.58,13.58,0,0,1-5.48-2.3,4.67,4.67,0,0,1-2-3.79,5.23,5.23,0,0,1,2-4,14.37,14.37,0,0,1,6-2.77l.64,1.15a6.89,6.89,0,0,0-2,2.34,6,6,0,0,0-.61,2.63,5.12,5.12,0,0,0,2.77,4.64,14.93,14.93,0,0,0,7.53,1.62,18.17,18.17,0,0,0,5.79-.86,8.92,8.92,0,0,0,4-2.6,6.31,6.31,0,0,0,1.47-4.24,4.79,4.79,0,0,0-1.58-3.64q-1.59-1.47-6.34-1.47h-4.46a18.33,18.33,0,0,1-5.15-.65,7.05,7.05,0,0,1-3.42-2.06,5.18,5.18,0,0,1-1.22-3.56,7.22,7.22,0,0,1,2.37-5.33,23.88,23.88,0,0,1,7.06-4.32l.72.58a24.56,24.56,0,0,0-2.56,1.84A3.05,3.05,0,0,0,170,352c0,1.54,1,2.3,2.88,2.3h7.85a24.84,24.84,0,0,1,7.09.94,10.18,10.18,0,0,1,5,3.06,8.1,8.1,0,0,1,1.84,5.51,10.72,10.72,0,0,1-2.27,6.55,15.48,15.48,0,0,1-7,4.86A32.93,32.93,0,0,1,173.51,377Zm.72-28.88a20.58,20.58,0,0,1-7.34-1.22,11,11,0,0,1-5.11-3.75,10.53,10.53,0,0,1-1.88-6.48,10.15,10.15,0,0,1,7-10.25,23.26,23.26,0,0,1,14.69,0,10.12,10.12,0,0,1,7,10.25,10.53,10.53,0,0,1-1.87,6.48,11,11,0,0,1-5.11,3.75A20.6,20.6,0,0,1,174.23,348.14Zm0-1.29a3.33,3.33,0,0,0,3-2.2q1.08-2.19,1.08-8c0-3.83-.36-6.49-1.08-7.95a3.16,3.16,0,0,0-6,0c-.74,1.46-1.11,4.12-1.11,7.95s.37,6.5,1.11,8A3.36,3.36,0,0,0,174.23,346.85Zm11.23-15.41-1.44-.5a10.68,10.68,0,0,1,3.5-4.69,8.36,8.36,0,0,1,5.22-1.87,4.24,4.24,0,0,1,4.68,4.54,4.09,4.09,0,0,1-1.16,3.2,3.73,3.73,0,0,1-2.59,1.05,3.5,3.5,0,0,1-2.27-.87,3.6,3.6,0,0,1-1.18-2.63,9.35,9.35,0,0,1,1.22-4.57l.5.44a9.75,9.75,0,0,0-6.48,5.9Z"></path>
    <path class="cls-8" d="M224.13,325.25a6.55,6.55,0,0,1,3.74,1A5.92,5.92,0,0,1,230,328.7a7.72,7.72,0,0,1,.68,3.17,6.22,6.22,0,0,1-1.55,4.36,5.25,5.25,0,0,1-4.07,1.69,5.67,5.67,0,0,1-3.92-1.26,4.27,4.27,0,0,1-1.4-3.35,5.8,5.8,0,0,1,.9-3.35,8.71,8.71,0,0,1,2.26-2.27,3.22,3.22,0,0,0-2,.08,5.81,5.81,0,0,0-2.59,1.11,8.29,8.29,0,0,0-2.09,2.24,11.93,11.93,0,0,0-1.37,2.88,9.45,9.45,0,0,0-.5,3v19.08q0,3.46,1.69,4.68A8.62,8.62,0,0,0,221.1,362v1.51l-4.82-.18q-3.17-.1-6.62-.11c-1.92,0-3.87,0-5.84.11l-4.46.18V362a4.81,4.81,0,0,0,3.56-1.08q1.05-1.08,1.05-4.11V334.1a9.33,9.33,0,0,0-1-4.79c-.65-1-1.86-1.54-3.64-1.54v-1.52c1.54.15,3,.22,4.46.22,2,0,3.9-.08,5.66-.25a38.74,38.74,0,0,0,4.86-.76v6.7a13,13,0,0,1,2.3-3.53,10.78,10.78,0,0,1,3.31-2.48A9.52,9.52,0,0,1,224.13,325.25Z"></path>
    <path class="cls-8" d="M250.55,325.25q6.34,0,9.94,3.74t3.6,12.24H240.4l-.14-1.37H255a35.2,35.2,0,0,0-.44-6.51,13.72,13.72,0,0,0-1.58-4.79,3.25,3.25,0,0,0-2.88-1.8q-2.52,0-4.28,3.17t-2.13,10.51l.22.43c-.05.58-.09,1.18-.11,1.8s0,1.27,0,1.95a19.58,19.58,0,0,0,1.41,8.06,10.18,10.18,0,0,0,3.56,4.5,8,8,0,0,0,4.39,1.4,11.37,11.37,0,0,0,3.14-.46,10.19,10.19,0,0,0,3.27-1.73,13.07,13.07,0,0,0,3.1-3.57l1.29.43a18.48,18.48,0,0,1-2.73,5.33,15,15,0,0,1-4.75,4.25,13.71,13.71,0,0,1-6.92,1.66,17.49,17.49,0,0,1-8.64-2.09,14.3,14.3,0,0,1-5.86-6.34,24,24,0,0,1-2.13-10.8,24.56,24.56,0,0,1,2.27-11.16,15.27,15.27,0,0,1,6.26-6.66A18.66,18.66,0,0,1,250.55,325.25Z"></path>
    <path class="cls-8" d="M282.88,314.45v11.8h8.5v1.44h-8.5v29.09a4.63,4.63,0,0,0,.79,3.06,3,3,0,0,0,2.38.9,4.29,4.29,0,0,0,2.59-1,8,8,0,0,0,2.3-3.35l1.23.65a12.69,12.69,0,0,1-3.49,5.33,9.25,9.25,0,0,1-6.38,2.09,12.89,12.89,0,0,1-4.17-.62,7.61,7.61,0,0,1-3-1.83,7.7,7.7,0,0,1-2.08-3.92,29.55,29.55,0,0,1-.51-6.09V327.69h-6.05v-1.44h6.05v-9.5a27,27,0,0,0,5.58-.54A17.51,17.51,0,0,0,282.88,314.45Z"></path>
    <path class="cls-8" d="M311.9,325.25q6.33,0,9.93,3.74t3.6,12.24H301.74l-.14-1.37h14.76a35.24,35.24,0,0,0-.43-6.51,13.92,13.92,0,0,0-1.59-4.79,3.25,3.25,0,0,0-2.88-1.8q-2.52,0-4.28,3.17t-2.12,10.51l.21.43c0,.58-.08,1.18-.11,1.8s0,1.27,0,1.95a19.76,19.76,0,0,0,1.4,8.06,10.26,10.26,0,0,0,3.57,4.5,7.91,7.91,0,0,0,4.39,1.4,11.35,11.35,0,0,0,3.13-.46,10.33,10.33,0,0,0,3.28-1.73,13.22,13.22,0,0,0,3.09-3.57l1.3.43a18.77,18.77,0,0,1-2.74,5.33,15,15,0,0,1-4.75,4.25,13.7,13.7,0,0,1-6.91,1.66,17.43,17.43,0,0,1-8.64-2.09,14.27,14.27,0,0,1-5.87-6.34,24,24,0,0,1-2.12-10.8,24.56,24.56,0,0,1,2.26-11.16,15.23,15.23,0,0,1,6.27-6.66A18.63,18.63,0,0,1,311.9,325.25Z"></path>
    <path class="cls-8" d="M334.36,310.92a4.45,4.45,0,0,1,3.24,1.26,4.65,4.65,0,0,1,1.3,3.49,12.79,12.79,0,0,1-.62,4c-.41,1.25-.91,2.64-1.51,4.18s-1.24,3.5-1.91,5.9h-1A47.22,47.22,0,0,0,332,324a40.92,40.92,0,0,1-1.55-4.21,13.81,13.81,0,0,1-.58-4.07,4.81,4.81,0,0,1,1.3-3.53A4.39,4.39,0,0,1,334.36,310.92Z"></path>
    <path class="cls-8" d="M357,325.25a16.84,16.84,0,0,1,5.29.75,13.27,13.27,0,0,1,3.28,1.48q2.44,1.65,3-2.16h1.51c-.09,1.34-.16,3-.21,4.93s-.07,4.53-.07,7.74h-1.52a23.16,23.16,0,0,0-1.36-5.26,10.7,10.7,0,0,0-2.92-4.24,7.23,7.23,0,0,0-4.93-1.66A5.38,5.38,0,0,0,355.6,328a4.18,4.18,0,0,0-1.44,3.42,5.84,5.84,0,0,0,1.3,3.78,16.75,16.75,0,0,0,3.34,3.09c1.37,1,2.8,2,4.29,3.14s3,2.39,4.32,3.56a15,15,0,0,1,3.09,3.85,10.14,10.14,0,0,1,1.16,5,8.93,8.93,0,0,1-1.88,5.65,11.94,11.94,0,0,1-4.93,3.71,17.18,17.18,0,0,1-6.8,1.3,16,16,0,0,1-3.85-.43,13.53,13.53,0,0,1-2.92-1.08l-1.76-.83c-.56-.27-1.07-.49-1.55-.69a1.11,1.11,0,0,0-1.26.51,5.22,5.22,0,0,0-.83,2h-1.51c.09-1.53.17-3.4.21-5.61s.08-5.14.08-8.79h1.51a27.63,27.63,0,0,0,1.58,6.88,11.44,11.44,0,0,0,3.13,4.68,7.43,7.43,0,0,0,5,1.69,5.93,5.93,0,0,0,2.37-.5,4.35,4.35,0,0,0,1.91-1.66,5.23,5.23,0,0,0,.76-2.95,7.25,7.25,0,0,0-2.05-5.26,52.16,52.16,0,0,0-5.22-4.53q-2.31-1.87-4.36-3.71a17.11,17.11,0,0,1-3.35-4,9.71,9.71,0,0,1-1.29-5,8.68,8.68,0,0,1,1.72-5.47,10.57,10.57,0,0,1,4.58-3.35A16.54,16.54,0,0,1,357,325.25Z"></path>
    <path class="cls-9" d="M416.81,505.7l.53-.84a0,0,0,0,1,0,0s0,0,0,0h0Z"></path>
    <path class="cls-9" d="M423,496.59l.59-.81a.32.32,0,1,1,.52.38h0l-.62.78a.3.3,0,0,1-.48-.36Z"></path>
    <path class="cls-9" d="M429.6,487.77l.62-.78a.62.62,0,0,1,.87-.11.63.63,0,0,1,.11.88l0,0-.66.75a.6.6,0,0,1-.92-.77Z"></path>
    <path class="cls-9" d="M436.6,479.25l.65-.76a.88.88,0,0,1,1.33,1.14l0,0-.69.72a.84.84,0,0,1-1.2.05A.87.87,0,0,1,436.6,479.25Z"></path>
    <path class="cls-9" d="M443.92,471l.68-.74a1.13,1.13,0,0,1,1.59-.06,1.12,1.12,0,0,1,.06,1.58l0,0-.71.7a1.1,1.1,0,0,1-1.58-1.52Z"></path>
    <path class="cls-9" d="M451.57,463l.71-.71a1.35,1.35,0,1,1,1.9,1.91l0,0-.73.68a1.33,1.33,0,0,1-1.84-1.92Z"></path>
    <path class="cls-9" d="M459.54,455.36l.74-.68a1.55,1.55,0,0,1,2.1,2.28l0,0h0l-.76.65h0a1.53,1.53,0,0,1-2-2.29Z"></path>
    <path class="cls-9" d="M467.81,448l.77-.65a1.76,1.76,0,1,1,2.27,2.68l0,0h0l-.78.62h0a1.74,1.74,0,0,1-2.2-2.69Z"></path>
    <path class="cls-9" d="M476.39,441l.8-.62a2,2,0,0,1,2.41,3.1.1.1,0,0,0-.05,0h0l-.8.58h0a1.94,1.94,0,0,1-2.33-3.11Z"></path>
    <path class="cls-9" d="M485.3,434.39l.82-.58a2.13,2.13,0,1,1,2.45,3.48l0,0h0l-.82.55h0a2.12,2.12,0,0,1-2.38-3.5Z"></path>
    <path class="cls-9" d="M494.51,428.2l.85-.54a2.29,2.29,0,0,1,2.46,3.86l-.05,0h0l-.85.51h0a2.27,2.27,0,0,1-2.38-3.87Z"></path>
    <path class="cls-9" d="M504,422.45l.88-.5a2.45,2.45,0,1,1,2.41,4.27l-.05,0h0l-.87.46h0a2.43,2.43,0,0,1-2.34-4.27Z"></path>
    <path class="cls-9" d="M513.84,417.19l.9-.45a2.61,2.61,0,1,1,2.34,4.67l-.06,0h0l-.9.42h0a2.6,2.6,0,0,1-2.25-4.68Z"></path>
    <path class="cls-9" d="M523.94,412.47l.93-.4a2.76,2.76,0,0,1,2.17,5.08l0,0h0l-.91.37h0a2.75,2.75,0,0,1-2.1-5.08Z"></path>
    <path class="cls-9" d="M534.32,408.37l.95-.35a2.88,2.88,0,0,1,2,5.42l-.05,0h0l-.94.32h0a2.86,2.86,0,0,1-1.88-5.41Z"></path>
    <path class="cls-9" d="M544.94,404.88l1-.28a3,3,0,1,1,1.67,5.75h-.08l-1,.25h0a3,3,0,0,1-1.61-5.75Z"></path>
    <path class="cls-9" d="M555.77,402.07l1-.22a3.1,3.1,0,1,1,1.35,6.06l0,0h0l-1,.2h0a3.1,3.1,0,0,1-1.29-6.06Z"></path>
    <path class="cls-9" d="M566.77,400l1-.15a3.22,3.22,0,0,1,1,6.37h-.08l-1,.13h0a3.21,3.21,0,0,1-.92-6.36Z"></path>
    <path class="cls-9" d="M577.9,398.57l1-.09a3.34,3.34,0,1,1,.59,6.65h-.09l-1,.06h0a3.33,3.33,0,0,1-.52-6.63Z"></path>
    <path class="cls-9" d="M589.11,398h1a3.42,3.42,0,1,1,.11,6.84h-1.06a3.42,3.42,0,0,1-.07-6.84Z"></path>
    <path class="cls-9" d="M600.34,398.11l1,.05a3.49,3.49,0,0,1-.35,7h-.07l-1-.06h0a3.49,3.49,0,0,1,.4-7Z"></path>
    <path class="cls-9" d="M611.53,399l1,.12a3.56,3.56,0,1,1-.82,7.08h-.06l-1-.12h0a3.56,3.56,0,0,1,.86-7.06Z"></path>
    <path class="cls-9" d="M622.64,400.62l1,.18a3.63,3.63,0,0,1-1.29,7.15h-.06l-1-.19h0a3.63,3.63,0,0,1,1.34-7.13Z"></path>
    <path class="cls-9" d="M633.62,402.92l1,.25a3.7,3.7,0,1,1-1.76,7.19h-.06l-.95-.24h0a3.7,3.7,0,0,1,1.8-7.17Z"></path>
    <path class="cls-9" d="M644.44,405.88l1,.3a3.77,3.77,0,0,1-2.22,7.21h0l0,0-.93-.3h0a3.77,3.77,0,0,1,2.26-7.19Z"></path>
    <path class="cls-9" d="M655.07,409.46l.95.35a3.83,3.83,0,1,1-2.68,7.18h0l-.91-.35h0a3.83,3.83,0,0,1,2.7-7.17Z"></path>
    <path class="cls-9" d="M665.46,413.63l.92.4a3.86,3.86,0,1,1-3.06,7.08h0l-.91-.4h0a3.86,3.86,0,0,1,3.08-7.07Z"></path>
    <path class="cls-9" d="M675.56,418l.92.4a3.88,3.88,0,0,1-3.09,7.12h0l-.92-.4a3.88,3.88,0,0,1,3.1-7.11Z"></path>
    <path class="cls-9" d="M685.65,422.37l.92.4a3.9,3.9,0,0,1-3.1,7.16h0l-.91-.41a3.9,3.9,0,0,1,3.11-7.15Z"></path>
    <path class="cls-9" d="M695.75,426.74l.91.4a3.92,3.92,0,1,1-3.11,7.2h0l-.91-.4a3.93,3.93,0,0,1,3.13-7.2Z"></path>
    <path class="cls-9" d="M705.84,431.1l.92.39a4,4,0,0,1-3.12,7.26h0l-.92-.4a3.95,3.95,0,0,1,3.14-7.24Z"></path>
    <path class="cls-9" d="M715.94,435.43l.92.4a4,4,0,1,1-3.12,7.3h0l-.92-.39a4,4,0,0,1,3.14-7.3Z"></path>
    <path class="cls-9" d="M726.05,439.74l.92.38a4,4,0,0,1-3.11,7.37h0l-.92-.4a4,4,0,0,1,3.13-7.34Z"></path>
    <path class="cls-9" d="M736.15,444l.92.39a4,4,0,0,1-3.06,7.35l-.93-.39a4,4,0,0,1,3.06-7.36Z"></path>
    <path class="cls-9" d="M746.28,448.21l.92.37h0a4,4,0,0,1-3,7.34l-.94-.37a4,4,0,0,1,3-7.35h0Z"></path>
    <path class="cls-9" d="M756.43,452.24l.93.36h0a3.93,3.93,0,0,1-2.81,7.35l-.94-.35a3.94,3.94,0,1,1,2.8-7.36h0Z"></path>
    <path class="cls-9" d="M766.63,456l.93.33h0a3.92,3.92,0,0,1-2.56,7.4l-1-.33A3.92,3.92,0,0,1,766.6,456h0Z"></path>
    <path class="cls-9" d="M776.9,459.32l.93.27h0a3.89,3.89,0,0,1-2.12,7.48l-1-.28a3.89,3.89,0,1,1,2.11-7.49h0Z"></path>
    <path class="cls-9" d="M787.24,461.85l.94.18h0a3.86,3.86,0,0,1-1.41,7.59l-1-.18a3.87,3.87,0,1,1,1.4-7.61h0Z"></path>
    <path class="cls-9" d="M797.68,463.25l1,.06h0a3.84,3.84,0,0,1-.5,7.67l-1-.07a3.84,3.84,0,0,1,.49-7.67h0Z"></path>
    <path class="cls-9" d="M808.3,463.47l1,0h0a3.8,3.8,0,0,1,.24,7.59l-1,0a3.8,3.8,0,0,1-.28-7.6h.07Z"></path>
    <path class="cls-9" d="M819.1,462.93l1-.07h0a3.72,3.72,0,0,1,.57,7.42l-1,.09a3.73,3.73,0,1,1-.62-7.44h.05Z"></path>
    <path class="cls-9" d="M830,462.08l1-.08a3.65,3.65,0,0,1,.63,7.28l-1,.1a3.66,3.66,0,0,1-.69-7.29Z"></path>
    <path class="cls-9" d="M840.2,460.62l.9-.27h.06a3.58,3.58,0,0,1,2,6.86l-1,.31a3.59,3.59,0,1,1-2.09-6.86h0Z"></path>
    <path class="cls-9" d="M850.13,457.06l.9-.38h0a3.51,3.51,0,0,1,2.78,6.44l-.94.41a3.51,3.51,0,0,1-2.83-6.43h0Z"></path>
    <path class="cls-9" d="M859.84,452.51l.86-.46h0a3.43,3.43,0,0,1,3.22,6.06l-.9.49a3.44,3.44,0,0,1-3.27-6l0,0Z"></path>
    <path class="cls-9" d="M869.19,447.22l.83-.51,0,0a3.35,3.35,0,0,1,3.57,5.66l-.86.56a3.36,3.36,0,1,1-3.64-5.64l0,0Z"></path>
    <path class="cls-9" d="M878.13,441.27l.79-.57,0,0a3.22,3.22,0,0,1,3.86,5.16l-.81.62a3.23,3.23,0,1,1-3.94-5.13l.05,0Z"></path>
    <path class="cls-9" d="M886.5,434.61l.73-.65,0,0a3.1,3.1,0,0,1,4.16,4.59l-.75.7a3.11,3.11,0,0,1-4.23-4.56l0,0Z"></path>
    <path class="cls-9" d="M894.08,427.14l.64-.72,0,0a3,3,0,0,1,4.5,3.9l-.67.79a3,3,0,1,1-4.56-3.86l0,0Z"></path>
    <path class="cls-9" d="M900.52,418.81,901,418l0,0a2.85,2.85,0,0,1,4.84,3l-.55.89a2.86,2.86,0,1,1-4.89-3l0,0Z"></path>
    <path class="cls-9" d="M905.28,409.57l.33-.88,0-.07a2.73,2.73,0,0,1,5.13,1.84l-.35,1a2.74,2.74,0,0,1-5.18-1.76l0-.07Z"></path>
    <path class="cls-9" d="M907.73,399.6l.08-.93v-.07a2.55,2.55,0,0,1,5.09.37l-.07,1.07a2.56,2.56,0,0,1-5.12-.3s0,0,0-.07Z"></path>
    <path class="cls-9" d="M907.47,389.19l-.13-.95v-.05a2.4,2.4,0,0,1,4.74-.71l.16,1a2.4,2.4,0,1,1-4.74.78v-.1Z"></path>
    <path class="cls-9" d="M905.07,379l-.33-.89,0,0a2.24,2.24,0,0,1,4.19-1.6l.39,1a2.26,2.26,0,1,1-4.19,1.67l0-.05Z"></path>
    <path class="cls-9" d="M900.41,369.65l-.54-.78,0,0a2.09,2.09,0,0,1,3.41-2.43l.62.85a2.11,2.11,0,1,1-3.4,2.49l0,0Z"></path>
    <path class="cls-9" d="M893.45,362l-.74-.58-.05,0A1.93,1.93,0,0,1,895,358.3l.86.63a1.94,1.94,0,1,1-2.28,3.14l0,0Z"></path>
    <path class="cls-9" d="M884.44,357.15l-.89-.25-.07,0a1.74,1.74,0,0,1,.87-3.36l1,.25a1.75,1.75,0,0,1-.82,3.41h-.06Z"></path>
    <path class="cls-9" d="M874.35,356.55l-.91.2h-.07a1.54,1.54,0,0,1-.7-3l1-.26a1.56,1.56,0,1,1,.76,3h-.12Z"></path>
    <path class="cls-9" d="M865.07,360.82l-.74.6,0,0a1.35,1.35,0,0,1-1.73-2.08l.79-.68a1.37,1.37,0,1,1,1.8,2.07l0,0Z"></path>
    <path class="cls-9" d="M858.07,368.66l-.51.83,0,0a1.14,1.14,0,0,1-1.57.37,1.15,1.15,0,0,1-.39-1.53l.51-.9a1.16,1.16,0,0,1,2,1.15l0,0Z"></path>
    <path class="cls-9" d="M853.7,378.34l-.22.94v0a.87.87,0,0,1-1.05.66.88.88,0,0,1-.67-1l.18-1a.91.91,0,0,1,1.05-.73.9.9,0,0,1,.73,1v.07Z"></path>
    <path class="cls-9" d="M853.79,388.81l.29.93v0a.61.61,0,0,1-1.16.4l-.37-1a.65.65,0,0,1,1.21-.46v.06Z"></path>
    <path class="cls-9" d="M859.29,397.94l.7.7h0a.29.29,0,0,1,0,.42.3.3,0,0,1-.41,0l-.75-.68a.32.32,0,0,1,0-.46.33.33,0,0,1,.47,0h0Z"></path>
    <path class="cls-9" d="M868.09,404.36l.4.19-.41-.17s0,0,0,0Z"></path>
    <path class="cls-9" d="M423.4,366.18l.14-1,0,0s0,0,0,0h0Z"></path>
    <path class="cls-9" d="M425.09,355.31l.17-1a.26.26,0,1,1,.52.09h0l-.21,1a.25.25,0,0,1-.29.19A.25.25,0,0,1,425.09,355.31Z"></path>
    <path class="cls-9" d="M427,344.47l.18-1a.48.48,0,0,1,.95.18v0l-.22,1a.47.47,0,0,1-.55.36A.47.47,0,0,1,427,344.47Z"></path>
    <path class="cls-9" d="M429.09,333.66l.2-1a.66.66,0,0,1,1.3.26v0l-.23,1a.65.65,0,0,1-1.27-.28Z"></path>
    <path class="cls-9" d="M431.32,322.88l.21-1a.85.85,0,0,1,1-.65.86.86,0,0,1,.65,1v0l-.24,1a.83.83,0,0,1-1,.61A.84.84,0,0,1,431.32,322.88Z"></path>
    <path class="cls-9" d="M433.68,312.12l.22-1a1,1,0,0,1,1.24-.78,1,1,0,0,1,.77,1.23v0l-.25,1a1,1,0,0,1-1.23.73A1,1,0,0,1,433.68,312.12Z"></path>
    <path class="cls-9" d="M436.17,301.4l.24-1a1.2,1.2,0,0,1,1.46-.89,1.22,1.22,0,0,1,.9,1.46l0,0-.26,1a1.2,1.2,0,0,1-1.47.84A1.21,1.21,0,0,1,436.17,301.4Z"></path>
    <path class="cls-9" d="M438.83,290.71l.25-1a1.35,1.35,0,1,1,2.62.67v0l-.28,1a1.34,1.34,0,0,1-2.59-.69Z"></path>
    <path class="cls-9" d="M441.64,280.05l.26-1a1.49,1.49,0,0,1,2.87.78v0l-.29,1a1.47,1.47,0,0,1-2.83-.8Z"></path>
    <path class="cls-9" d="M444.58,269.43l.27-1a1.62,1.62,0,0,1,3.12.88l0,0-.29.95a1.61,1.61,0,0,1-3.08-.91Z"></path>
    <path class="cls-9" d="M447.67,258.85l.29-1a1.74,1.74,0,1,1,3.33,1v0l-.31.95a1.73,1.73,0,0,1-3.3-1Z"></path>
    <path class="cls-9" d="M450.93,248.32l.31-1a1.83,1.83,0,1,1,3.49,1.12v0l-.32.94a1.82,1.82,0,0,1-2.31,1.15A1.84,1.84,0,0,1,450.93,248.32Z"></path>
    <path class="cls-9" d="M454.38,237.77l.31-1a1.93,1.93,0,1,1,3.66,1.22v0L458,239a1.92,1.92,0,0,1-3.63-1.25Z"></path>
    <path class="cls-9" d="M458,227.33l.33-.94a2,2,0,0,1,3.82,1.34l0,0-.34.93a2,2,0,0,1-3.79-1.37Z"></path>
    <path class="cls-9" d="M461.71,217l.35-.93a2.11,2.11,0,0,1,4,1.48v0l-.36.93a2.11,2.11,0,0,1-3.94-1.51Z"></path>
    <path class="cls-9" d="M465.67,206.65l.37-.93a2.17,2.17,0,1,1,4,1.6v0l-.37.92a2.17,2.17,0,0,1-4-1.62Z"></path>
    <path class="cls-9" d="M469.83,196.42l.39-.92a2.23,2.23,0,1,1,4.11,1.72v0l-.39.91a2.23,2.23,0,0,1-4.1-1.74Z"></path>
    <path class="cls-9" d="M474.19,186.28l.41-.92a2.29,2.29,0,1,1,4.18,1.85v0l-.41.9a2.28,2.28,0,0,1-4.17-1.86Z"></path>
    <path class="cls-9" d="M478.78,176.22l.42-.91a2.35,2.35,0,0,1,4.25,2l0,0-.43.9h0a2.34,2.34,0,0,1-4.22-2Z"></path>
    <path class="cls-9" d="M483.6,166.27l.45-.9a2.4,2.4,0,0,1,4.28,2.16h0l-.45.89h0a2.39,2.39,0,0,1-4.27-2.16Z"></path>
    <path class="cls-9" d="M488.71,156.45l.47-.88a2.41,2.41,0,1,1,4.25,2.29h0l-.48.88h0a2.41,2.41,0,0,1-4.24-2.3Z"></path>
    <path class="cls-9" d="M494.09,146.78l.5-.87a2.43,2.43,0,0,1,4.22,2.43h0l-.5.85h0a2.43,2.43,0,0,1-4.21-2.44Z"></path>
    <path class="cls-9" d="M499.78,137.27l.53-.86a2.45,2.45,0,1,1,4.16,2.6h0l-.52.84h0a2.45,2.45,0,0,1-4.15-2.6Z"></path>
    <path class="cls-9" d="M505.79,128l.56-.83a2.47,2.47,0,1,1,4.1,2.76h0l-.55.82h0a2.47,2.47,0,0,1-4.09-2.77Z"></path>
    <path class="cls-9" d="M512.16,118.86l.6-.81a2.49,2.49,0,1,1,4,3h0l-.59.79h0a2.49,2.49,0,0,1-4-3Z"></path>
    <path class="cls-9" d="M518.94,110.06l.64-.79a2.49,2.49,0,1,1,3.86,3.15h0l-.62.77h0a2.5,2.5,0,0,1-3.88-3.14Z"></path>
    <path class="cls-9" d="M526.16,101.59l.68-.75a2.47,2.47,0,0,1,3.67,3.32h0l-.66.74h0a2.47,2.47,0,1,1-3.68-3.3Z"></path>
    <path class="cls-9" d="M533.85,93.53l.72-.71A2.45,2.45,0,1,1,538,96.31h0l-.7.69h0a2.45,2.45,0,1,1-3.45-3.49Z"></path>
    <path class="cls-9" d="M542,85.94l.77-.66A2.43,2.43,0,1,1,546,89h0l-.75.64h0A2.44,2.44,0,0,1,542,86Z"></path>
    <path class="cls-9" d="M550.76,79l.82-.6a2.41,2.41,0,1,1,2.86,3.89h0l-.79.59h0A2.42,2.42,0,0,1,550.76,79Z"></path>
    <path class="cls-9" d="M560,72.67l.87-.54a2.39,2.39,0,0,1,2.49,4.09h0l-.83.51h0A2.4,2.4,0,1,1,560,72.67Z"></path>
    <path class="cls-9" d="M569.79,67.23l.89-.46a2.33,2.33,0,0,1,2.17,4.13h0l-.87.47h0a2.34,2.34,0,1,1-2.2-4.12Z"></path>
    <path class="cls-9" d="M579.75,62.34l.92-.43a2.26,2.26,0,0,1,1.92,4.1h0l-.89.43h0a2.27,2.27,0,0,1-1.95-4.09Z"></path>
    <path class="cls-9" d="M589.93,57.9l.94-.37a2.19,2.19,0,0,1,1.67,4h0l-.91.38h0a2.19,2.19,0,1,1-1.7-4Z"></path>
    <path class="cls-9" d="M600.32,54l1-.33a2.12,2.12,0,0,1,1.41,4h0l-.93.34h0a2.12,2.12,0,1,1-1.44-4Z"></path>
    <path class="cls-9" d="M610.91,50.61l1-.28A2,2,0,0,1,613,54.17h0l-1,.29h0a2,2,0,0,1-1.18-3.85Z"></path>
    <path class="cls-9" d="M621.67,47.84l1-.23a1.89,1.89,0,0,1,.87,3.67h0l-1,.24h0a1.89,1.89,0,1,1-.91-3.67Z"></path>
    <path class="cls-9" d="M632.56,45.67l1-.16a1.76,1.76,0,0,1,.62,3.47h0l-1,.19h0a1.78,1.78,0,1,1-.66-3.49Z"></path>
    <path class="cls-9" d="M643.56,44.17l1-.1a1.62,1.62,0,0,1,.38,3.22h0l-1,.13h0a1.63,1.63,0,0,1-.42-3.24Z"></path>
    <path class="cls-9" d="M654.63,43.38l1,0a1.45,1.45,0,0,1,.16,2.9h0l-1,.06h0a1.47,1.47,0,1,1-.2-2.93Z"></path>
    <path class="cls-9" d="M665.72,43.28l1,0a1.29,1.29,0,0,1,0,2.58h-1a1.29,1.29,0,0,1-1.3-1.3,1.31,1.31,0,0,1,1.3-1.31Z"></path>
    <path class="cls-9" d="M676.78,44l1,.1a1.08,1.08,0,0,1-.17,2.15h0l-1-.06h0a1.1,1.1,0,1,1,.13-2.19Z"></path>
    <path class="cls-9" d="M687.75,45.42l1,.17a.84.84,0,0,1-.25,1.67h0l-1-.13h0a.87.87,0,1,1,.22-1.72Z"></path>
    <path class="cls-9" d="M698.58,47.65l1,.24a.62.62,0,0,1-.27,1.2l-1-.2a.63.63,0,0,1-.5-.75.64.64,0,0,1,.75-.5Z"></path>
    <path class="cls-9" d="M709.19,50.7l.95.33a.38.38,0,0,1,.24.49.39.39,0,0,1-.48.24l-.95-.28a.41.41,0,0,1-.29-.5.41.41,0,0,1,.51-.28Z"></path>
    <path class="cls-9" d="M719.44,54.76l.91.43a.08.08,0,0,1,0,.11.09.09,0,0,1-.11,0l-.92-.38a.11.11,0,0,1-.07-.14.12.12,0,0,1,.14-.06Z"></path>
    <path class="cls-10" d="M423.31,376.28l.37-.92s0,0,0,0,0,0,0,0h0Z"></path>
    <path class="cls-10" d="M427.49,366.11l.38-.92a.2.2,0,0,1,.27-.11.19.19,0,0,1,.11.26h0l-.42.91a.19.19,0,0,1-.25.09A.18.18,0,0,1,427.49,366.11Z"></path>
    <path class="cls-10" d="M431.8,356l.4-.92a.39.39,0,0,1,.51-.21.4.4,0,0,1,.21.52h0l-.43.9a.37.37,0,0,1-.5.18A.37.37,0,0,1,431.8,356Z"></path>
    <path class="cls-10" d="M436.25,345.92l.41-.91a.53.53,0,1,1,1,.44h0l-.44.9a.51.51,0,0,1-.69.24A.53.53,0,0,1,436.25,345.92Z"></path>
    <path class="cls-10" d="M440.8,335.9l.42-.91a.67.67,0,0,1,.89-.32.66.66,0,0,1,.33.89h0l-.44.9a.65.65,0,0,1-.88.3A.66.66,0,0,1,440.8,335.9Z"></path>
    <path class="cls-10" d="M445.44,325.92l.43-.9a.81.81,0,0,1,1.08-.39.82.82,0,0,1,.39,1.08v0l-.45.89a.8.8,0,0,1-1.44-.7Z"></path>
    <path class="cls-10" d="M450.17,316l.43-.9a1,1,0,0,1,1.72.83l0,0-.45.89a.94.94,0,0,1-1.68-.84Z"></path>
    <path class="cls-10" d="M455,306.08l.44-.9a1.09,1.09,0,0,1,2,1v0l-.46.89a1.08,1.08,0,0,1-1.93-1Z"></path>
    <path class="cls-10" d="M459.89,296.22l.45-.89a1.23,1.23,0,1,1,2.19,1.1v0l-.47.88a1.22,1.22,0,0,1-2.16-1.12Z"></path>
    <path class="cls-10" d="M464.92,286.43l.46-.89a1.32,1.32,0,0,1,2.35,1.22v0l-.48.88a1.31,1.31,0,0,1-2.32-1.23Z"></path>
    <path class="cls-10" d="M470.05,276.68l.47-.88a1.41,1.41,0,0,1,2.49,1.33v0l-.49.87a1.4,1.4,0,0,1-2.46-1.34Z"></path>
    <path class="cls-10" d="M475.28,267l.48-.88a1.49,1.49,0,1,1,2.62,1.44v0l-.49.87a1.49,1.49,0,0,1-2.6-1.45Z"></path>
    <path class="cls-10" d="M480.61,257.35l.49-.87a1.58,1.58,0,0,1,2.76,1.54v0l-.5.86a1.58,1.58,0,0,1-2.74-1.56Z"></path>
    <path class="cls-10" d="M486.05,247.77l.5-.87a1.67,1.67,0,0,1,2.89,1.66l0,0-.51.86a1.66,1.66,0,0,1-2.86-1.67Z"></path>
    <path class="cls-10" d="M491.6,238.24l.51-.86a1.75,1.75,0,0,1,3,1.79v0l-.52.85a1.75,1.75,0,0,1-3-1.8Z"></path>
    <path class="cls-10" d="M497.26,228.79l.53-.86a1.83,1.83,0,1,1,3.13,1.91v0l-.54.84a1.82,1.82,0,0,1-2.52.58A1.85,1.85,0,0,1,497.26,228.79Z"></path>
    <path class="cls-10" d="M503.05,219.41l.54-.85a1.92,1.92,0,1,1,3.25,2l0,0-.54.83a1.91,1.91,0,0,1-3.23-2.05Z"></path>
    <path class="cls-10" d="M509,210.1l.54-.84a2,2,0,0,1,3.37,2.18l0,0-.55.83a2,2,0,0,1-3.34-2.2Z"></path>
    <path class="cls-10" d="M515,200.88l.56-.83a2.09,2.09,0,1,1,3.47,2.33l0,0-.56.82a2.09,2.09,0,0,1-3.45-2.35Z"></path>
    <path class="cls-10" d="M521.28,191.78l.58-.82a2.14,2.14,0,0,1,3.51,2.46v0l-.58.81a2.14,2.14,0,0,1-3.5-2.47Z"></path>
    <path class="cls-10" d="M527.7,182.8l.59-.81a2.19,2.19,0,1,1,3.53,2.58h0l-.59.8a2.18,2.18,0,0,1-3.52-2.58Z"></path>
    <path class="cls-10" d="M534.29,173.94l.61-.8a2.23,2.23,0,0,1,3.55,2.7v0l-.61.79a2.23,2.23,0,0,1-3.54-2.71Z"></path>
    <path class="cls-10" d="M541.08,165.22l.63-.79a2.28,2.28,0,0,1,3.56,2.84l0,0-.63.77h0a2.27,2.27,0,0,1-3.54-2.85Z"></path>
    <path class="cls-10" d="M548.09,156.66l.65-.77a2.32,2.32,0,1,1,3.54,3h0l-.65.75h0a2.32,2.32,0,0,1-3.53-3Z"></path>
    <path class="cls-10" d="M555.33,148.29l.67-.75a2.37,2.37,0,0,1,3.53,3.15h0l-.67.73h0a2.36,2.36,0,0,1-3.51-3.16Z"></path>
    <path class="cls-10" d="M562.84,140.15l.7-.73a2.4,2.4,0,0,1,3.46,3.32h0l-.69.72h0a2.39,2.39,0,0,1-3.45-3.32Z"></path>
    <path class="cls-10" d="M570.67,132.28l.72-.7a2.42,2.42,0,0,1,3.35,3.48h0l-.72.68h0a2.41,2.41,0,0,1-3.34-3.48Z"></path>
    <path class="cls-10" d="M578.82,124.74l.76-.67a2.43,2.43,0,0,1,3.2,3.65h0l-.74.65h0a2.43,2.43,0,1,1-3.2-3.65Z"></path>
    <path class="cls-10" d="M587.34,117.59l.8-.63a2.44,2.44,0,1,1,3,3.83h0l-.78.61h0a2.44,2.44,0,0,1-3-3.83Z"></path>
    <path class="cls-10" d="M596.29,110.92l.83-.58a2.46,2.46,0,0,1,2.79,4h0l-.82.56h0a2.45,2.45,0,1,1-2.78-4Z"></path>
    <path class="cls-10" d="M605.69,104.88l.87-.51a2.47,2.47,0,0,1,2.51,4.26h0l-.85.5h0a2.47,2.47,0,0,1-2.5-4.26Z"></path>
    <path class="cls-10" d="M615.36,99.43l.89-.47a2.49,2.49,0,0,1,2.35,4.38h0l-.87.47h0a2.48,2.48,0,1,1-2.34-4.38Z"></path>
    <path class="cls-10" d="M625.23,94.36l.9-.44a2.5,2.5,0,1,1,2.2,4.49h0l-.89.43h0a2.5,2.5,0,0,1-2.18-4.5Z"></path>
    <path class="cls-10" d="M635.29,89.69l.92-.4a2.49,2.49,0,1,1,2,4.55h0l-.91.4h0a2.49,2.49,0,1,1-2-4.55Z"></path>
    <path class="cls-10" d="M645.52,85.41l.94-.37a2.47,2.47,0,1,1,1.81,4.6h0l-.92.36h0a2.48,2.48,0,0,1-1.83-4.6Z"></path>
    <path class="cls-10" d="M655.91,81.51l1-.33a2.46,2.46,0,0,1,1.63,4.64h0l-.94.33h0a2.46,2.46,0,0,1-1.64-4.64Z"></path>
    <path class="cls-10" d="M666.44,78l1-.3a2.44,2.44,0,1,1,1.43,4.67h0l-1,.3h0A2.44,2.44,0,1,1,666.44,78Z"></path>
    <path class="cls-10" d="M677.11,75l1-.25a2.43,2.43,0,1,1,1.23,4.7h0l-1,.25h0a2.43,2.43,0,1,1-1.24-4.7Z"></path>
    <path class="cls-10" d="M687.91,72.37l1-.21a2.41,2.41,0,1,1,1,4.72h0l-1,.21h0a2.42,2.42,0,0,1-1-4.73Z"></path>
    <path class="cls-10" d="M698.82,70.26l1-.17a2.4,2.4,0,0,1,.8,4.74h0l-1,.17h0a2.4,2.4,0,0,1-.81-4.74Z"></path>
    <path class="cls-10" d="M709.82,68.68l1-.11a2.38,2.38,0,0,1,.55,4.72h0l-1,.12h0a2.38,2.38,0,0,1-.58-4.73Z"></path>
    <path class="cls-10" d="M720.9,67.68l1-.06a2.33,2.33,0,0,1,.3,4.66h0l-1,.07h0a2.34,2.34,0,0,1-.32-4.66Z"></path>
    <path class="cls-10" d="M732,67.29h1a2.29,2.29,0,0,1,0,4.58h-1a2.3,2.3,0,0,1-.06-4.59Z"></path>
    <path class="cls-10" d="M743.15,67.55l1,.06a2.25,2.25,0,0,1-.24,4.49h0l-1,0h0a2.25,2.25,0,0,1,.22-4.5Z"></path>
    <path class="cls-10" d="M754.25,68.5l1,.12a2.2,2.2,0,0,1-.51,4.38h0l-1-.12h0a2.21,2.21,0,1,1,.5-4.39Z"></path>
    <path class="cls-10" d="M765.27,70.17l1,.19a2.16,2.16,0,0,1-.79,4.25h0l-1-.18h0a2.17,2.17,0,1,1,.78-4.26Z"></path>
    <path class="cls-10" d="M776.15,72.61l1,.26a2.12,2.12,0,0,1-1.07,4.1h0l-1-.25h0a2.12,2.12,0,1,1,1.06-4.11Z"></path>
    <path class="cls-10" d="M786.82,75.85l1,.34a2.05,2.05,0,0,1-1.33,3.88h0l-.94-.31h0a2.06,2.06,0,0,1,1.31-3.91Z"></path>
    <path class="cls-10" d="M797.22,79.89l.93.41a2,2,0,0,1-1.57,3.64h0l-.91-.39h0a2,2,0,0,1,1.54-3.67Z"></path>
    <path class="cls-10" d="M807.27,84.72l.89.47a1.91,1.91,0,0,1-1.77,3.39h0l-.88-.45h0a1.91,1.91,0,1,1,1.76-3.4Z"></path>
    <path class="cls-10" d="M816.91,90.3l.86.54A1.84,1.84,0,0,1,815.82,94h0l-.84-.52h0a1.85,1.85,0,0,1,1.94-3.15Z"></path>
    <path class="cls-10" d="M826.1,96.59l.81.6a1.77,1.77,0,0,1-2.1,2.85h0l-.8-.58h0a1.78,1.78,0,0,1,2.09-2.88Z"></path>
    <path class="cls-10" d="M834.21,104.63l.61.83a1.69,1.69,0,0,1-2.71,2h0l-.6-.78v0a1.7,1.7,0,0,1,2.7-2.07Z"></path>
    <path class="cls-10" d="M840.28,114.08l.48.91a1.59,1.59,0,0,1-2.79,1.52l0,0-.47-.85v0a1.6,1.6,0,1,1,2.8-1.56Z"></path>
    <path class="cls-10" d="M844.78,124.42l.31,1a1.49,1.49,0,0,1-2.84.92v0l-.31-.92v0a1.5,1.5,0,1,1,2.85-1Z"></path>
    <path class="cls-10" d="M847,135.52l.06,1a1.39,1.39,0,0,1-2.78.18v0l-.07-1v0a1.4,1.4,0,1,1,2.79-.2Z"></path>
    <path class="cls-10" d="M846.05,146.86l-.27,1a1.29,1.29,0,0,1-2.5-.64v0l.23-.93v0a1.3,1.3,0,0,1,2.53.63Z"></path>
    <path class="cls-10" d="M841.54,157.27l-.56.87a1.17,1.17,0,0,1-2-1.26l0,0,.51-.82,0,0a1.18,1.18,0,1,1,2,1.25Z"></path>
    <path class="cls-10" d="M834.29,165.88l-.75.69a1,1,0,0,1-1.46-.07,1,1,0,0,1,0-1.44h0l.71-.68h0a1,1,0,1,1,1.45,1.5Z"></path>
    <path class="cls-10" d="M825.36,172.77l-1,.37a.89.89,0,0,1-1.13-.54.88.88,0,0,1,.51-1.11l.09,0,.84-.33.09,0a.9.9,0,1,1,.65,1.67Z"></path>
    <path class="cls-10" d="M814.32,170.53l-.78-.7a.73.73,0,0,1,1-1.09l0,0,.73.62,0,0a.76.76,0,0,1,.09,1.05.74.74,0,0,1-1,.08Z"></path>
    <path class="cls-10" d="M807.6,161.58l-.47-.9a.56.56,0,0,1,.24-.76.55.55,0,0,1,.75.22h0l.49.86h0a.59.59,0,0,1-.22.8.6.6,0,0,1-.8-.23Z"></path>
    <path class="cls-10" d="M803.29,151.13l.44-.93a.42.42,0,0,1,.55-.19.41.41,0,0,1,.2.54v0l-.4.89v0a.44.44,0,0,1-.57.21.43.43,0,0,1-.21-.56Z"></path>
    <path class="cls-10" d="M810.64,142.92a7.89,7.89,0,0,1,1-.36.23.23,0,0,1,.29.15.24.24,0,0,1-.14.29,7.14,7.14,0,0,0-.9.38.25.25,0,1,1-.22-.46Z"></path>
    <path class="cls-10" d="M821,145l.77.64s0,0,0,.06a.06.06,0,0,1-.07,0l-.79-.61a.06.06,0,0,1,0-.09.07.07,0,0,1,.09,0Z"></path>
    <path class="cls-11" d="M437.93,475.44s94.56-79.11,209.69-34.1c98.7,38.59,84.63,101.05,84.63,101.05s-27.62,49.89-74,10.11"></path>
  </g>
  <g id="Layer_5_copy" data-name="Layer 5 copy">
    <path class="cls-10" d="M635.85,474.1c-9.67,12.67-23,18-38.46,18.65-15.17.61-29.69-2.95-44.06-7.22-16.93-5-33.81-10.24-51.41-12.53-18.75-2.43-37-.63-54.54,6.54a2.3,2.3,0,0,0-1.28,1.15c.94-.23,1.89-.45,2.83-.69,23.76-6,47.4-4.54,70.89,1.48,14.46,3.7,28.77,8,43.23,11.68,12.44,3.18,25.06,4.58,38.05,2.43-2.62,1-5.21,2.14-7.86,3.09-20.83,7.45-41.76,6.29-62.78.75-14.67-3.86-29.33-7.79-44.13-11.08a114,114,0,0,0-38.74-1.41c-.48.06-1,.19-1.15.22,7.3.92,15,1.11,22.23,3,11.92,3.06,23.62,7,35.3,10.93,14.55,4.88,29.17,9.39,44.72,8.6,7-.35,14-1.8,21-2.76a8.61,8.61,0,0,1,1.9-.15c-17.31,9.14-35.48,12.48-54.44,6.53-13.1-4.11-25.83-9.35-38.75-14-14.5-5.21-29.36-7.45-44.73-5.07-.64.1-1.29.15-1.93.28-.15,0-.26.29.07-.11,8.56,1.14,17.59,1.82,26.39,3.62,17.61,3.6,33.5,11.63,49.16,20.14,12.45,6.76,24.9,13.54,37.61,19.79a45.4,45.4,0,0,0,23.8,4.86c2.78-.22,5.52-.9,8.86-1.47-11.75,6-23.4,6.68-35.41,3.25s-22.46-9.47-33-15.67c-14.47-8.51-28.67-17.52-44.5-23.46-16.62-6.25-33.6-8.28-51.09-4.33-.42.09-.83.21-1.24.34-.09,0-.13.15-.4.5.91.06,1.66.18,2.41.16,30.77-.81,57,10,78.9,31.35,9.14,8.87,17.85,18.18,27,27.08,7.15,7,15.17,12.62,25.45,14.18A32,32,0,0,1,529,571.66c-9.82-4.4-17.67-11.47-25.22-18.9-9-8.86-17.43-18.41-27.06-26.51-17.93-15.09-39.37-20.43-62.49-19.88a13.62,13.62,0,0,0-4.82.8c.73.07,1.45.19,2.18.21,18,.49,35.15,3.88,50,14.75A60.75,60.75,0,0,1,484.18,553c6.14,18.9.08,38.82-18.51,50.46-17.82,11.16-35.93,11.22-54.05.73a39,39,0,0,1-13.22-12.88c2.47,2.22,4.88,4.54,7.44,6.67,16.8,13.9,38,15.2,56.46,4,19.55-11.87,26.41-34.77,15.38-55.64-12.33-23.31-32.79-33.45-58.25-34.82-19.57-1-38.38,3.37-56.89,9-35.7,10.92-72,18.33-109.41,19.61-17.19.6-34.41,0-51.64-.71,6.45-3.07,13.18-3.91,20.1-4.15,14.82-.51,29.66-.87,44.44-2,22.15-1.63,43.91-5.46,64.58-14,9.82-4.06,19.31-8.86,26.91-16.47,14.17-14.19,16.17-31.44,5.26-48.82-8.78-14-28.1-24.3-46.83-18.66-13.92,4.19-23.26,13.49-29.12,26.31-2.81,6.13-4.34,12.85-6.31,18.89.62-19.24,8.91-34.81,26.08-44.68s34.86-8.81,50.72,2.94c16.63,12.31,22.27,29.43,17.75,50.57a58,58,0,0,0,7.74-22.53c2.83-22.33-11.24-45.51-29.73-53.15-10.22-4.22-20-2.93-29.75,1.31-1.58.69-3.12,1.47-5,2.37,15.08-12.57,37.26-10.86,51.18,3.69,21,21.92,23.54,56.16,6.21,82.81-1.29,2-2.68,3.88-3.85,6C378.35,507,384,503,388.19,497.09c5.43-7.65,7.09-16.31,6.75-25.46-.49-13.47-4.79-26.05-9.08-38.65-4.34-12.77-9-25.48-12.39-38.51a65.09,65.09,0,0,1,2.15-40.23,7.73,7.73,0,0,1,2-3.34c-.41,1.68-.87,3.36-1.23,5.05-2.65,12.48-1.38,24.84,2.16,36.87,4.19,14.3,9.17,28.37,13.76,42.56,3.56,11,6.76,22.11,7.51,33.74.79,12.15-1.35,23.45-9.8,33.1a16.16,16.16,0,0,0,1.69-.77c18-11.24,25.88-27.58,22.42-48.4-2.19-13.15-6-26.08-9.57-38.95-4.45-15.85-9.4-31.55-10.55-48.1-1-15,1.33-29.35,8.16-42.85.3-.58.58-1.17.91-1.73.1-.16.35-.22.73-.43a2.46,2.46,0,0,1,0,.81c-10.22,22.73-10.52,46-2.54,69.21,4.84,14.08,11.07,27.67,16.32,41.62a191,191,0,0,1,7.08,22.73,48.16,48.16,0,0,1-2.09,28.94c13.86-16.69,19-35.15,10.42-55.84-4.26-10.23-9.56-20-14.54-30-7.16-14.27-13-28.95-12.32-45.23.27-6.92,2-13.77,2.88-20.68a13.43,13.43,0,0,0-.12-5.62,64.3,64.3,0,0,1-1.52-35.76,3.5,3.5,0,0,1,.84-1.63,71,71,0,0,0,2.82,34.6c4.57-8.37,8.81-16.94,13.86-25a20.91,20.91,0,0,0,3.39-11.39c.41-18.15,8.16-33,21.63-44.87,5.72-5,12.17-9.21,18.3-13.74a32.19,32.19,0,0,1,3.16-1.77c-2.82,4.48-5.49,8.28-7.71,12.33-9.72,17.67-9.94,36.06-2.32,54.26,5.2,12.42,11.7,24.33,18.11,36.21C488,345.93,496.9,361.41,501.15,379a81.89,81.89,0,0,1,1,34.7c-.12.63-.19,1.27-.33,2.22,8.14-8.14,10.81-18,10.92-28.76.12-11.77-3.56-22.59-9.19-32.69-6.64-11.91-13.8-23.52-20.73-35.27-14.57-24.71-19.95-50.74-11.11-78.74,5.86-18.52,16.58-33.95,30.49-47.3a57.11,57.11,0,0,1,6.51-5.54c-1,1.3-2,2.63-3.11,3.91-13.19,15.66-19.17,33.48-16.21,54,.59,4.1,1.1,8.21,1.84,12.28,1.61,8.81,1.77,17.5-.69,26.24-4.49,15.94-1.13,30.81,6.43,45.11,4.49,8.47,8.95,17,13,25.68,6.42,13.88,9.14,28.34,5.21,43.59a28.42,28.42,0,0,0,5.75-15.62c.64-10.36-2.78-19.74-7.23-28.83-5.65-11.54-11.71-22.9-16.94-34.63a44.86,44.86,0,0,1-3.19-26.92,12.73,12.73,0,0,1,.36,1.82,59.38,59.38,0,0,0,10.45,30.54c4,6,8.28,11.8,12.42,17.69,7.43,10.6,12.45,22,11.59,35.38a27.06,27.06,0,0,0,2.27-21.24c-2.44-8.44-7.7-15.23-13.67-21.28C502.85,321,496.5,303.93,497.58,284a95.07,95.07,0,0,0-3.7-31.33c-5.13-18.09-2.44-35.18,7.4-51.17.45-.74,1-1.45,1.46-2.15.11-.14.37-.17.79-.35-.56,1.11-1,2.06-1.51,3a36.36,36.36,0,0,0-4.15,23.72,53.39,53.39,0,0,0,1.4,7.38A91,91,0,0,1,502.46,269a17.05,17.05,0,0,0,.55,6.35c.43-1.54,1.21-3.08,1.22-4.62,0-8,.07-16.09-.29-24.11-.25-5.44-1.21-10.83-1.75-16.26-2-20,5.65-36.75,18.26-51.53a160.69,160.69,0,0,1,18.22-17.63c-4.63,5.56-9.4,11-13.85,16.69-12.28,15.74-17.76,33.45-15.69,53.51.89,8.54.86,17.18,1.05,25.78.05,2.24-.6,4.49-.23,7,.79-2.83,2.09-5.62,2.27-8.49.35-5.19.78-10.57-.14-15.62-4.57-24.91,3.71-45.75,19.66-64.23,11-12.8,24.66-22.38,39.51-30.28.65-.34,1.43-.45,1.87-.95-7.3,5.77-14.9,11.2-21.84,17.37-13.87,12.32-24.91,26.76-31.1,44.53a61.8,61.8,0,0,0-3.41,21.86c.2,9,.3,18,.44,26.88,2.49-1.59,3.68-3.78,3.2-7.62-3.7-29.65,5-55.12,26.48-76a133.77,133.77,0,0,1,34-23.72c16.06-8,32.35-15.57,48.55-23.31,14.09-6.73,27.82-14.08,40.65-23.19-1.14,1.27-2.29,2.52-3.41,3.8-6.8,7.75-10.6,16.95-12.91,26.85-1.06,4.57-2.09,9.15-3,13.76-4.14,21.8-15.87,38.6-33.57,51.6-13.05,9.58-27.57,16.21-42.67,21.73a5.46,5.46,0,0,1-2.14.25c27.85-11.44,50.48-27.77,56.39-59.81-1.51,3.53-2.9,7.12-4.53,10.59-7.65,16.23-20.26,27.13-36.39,34.61-7.57,3.51-14.73,8-21.79,12.52a19.45,19.45,0,0,0-7.86,10.33c9.12-3,17.95-6.49,27.1-8.7,13.54-3.28,25.27-9.92,36.62-17.55,17.94-12.06,27.65-29.06,30.8-50.28,1.26-8.49,3.52-16.84,5.38-25.25a15.85,15.85,0,0,1,1-2.74c-1.15,11.39-2.2,23.38-3.59,35.33-2,17.27-10.76,30.87-23.68,42-4.85,4.18-10,8-15.62,12.32a58.23,58.23,0,0,0,23.79-12.51c6.87-5.88,11.63-13.33,15.15-21.65a43,43,0,0,1-9.49,21,48.84,48.84,0,0,1-18.61,14.28,11.84,11.84,0,0,1,2.5,1c4.24,3.43,7.22.85,10.32-1.95,14.29-12.86,21.06-28.79,19.9-48a1.56,1.56,0,0,1,.27-1,49.32,49.32,0,0,1,1,17.29c-1.56,16.1-8,30.24-17.59,43.06a6.69,6.69,0,0,0-1.25,6.71c3.78,13.17,3.85,26.7,2.94,40.24C643.7,293.9,639.37,316,629,336.47c-6.18,12.16-14.33,22.67-26.4,29.56-3.25,1.86-6.78,3.23-10.49,5a45.56,45.56,0,0,0,29.18-3.78c7.33-3.59,14.36-7.82,21.48-11.84,19.39-10.95,39.45-12.09,60.15-4.18a9.58,9.58,0,0,1,1.24.83c-14.35,3.27-22.9,13.87-31.9,23.67-10.45,11.37-23.4,16.58-38.53,17.44A175.48,175.48,0,0,1,590,390.27c-18.87-3.68-37.11-1.89-54.71,5.92a2.34,2.34,0,0,0-1,.76c11.67-2.85,23.25-.56,34.84.34,9.21.72,18.31.38,27-3.23a8.17,8.17,0,0,1,1.85-.19c-7.49,4.34-15.16,6-23.13,6.38-10,.47-20.06.55-30.07,1.2-9.2.6-17.55,4-25.3,8.93-.1.07-.06.38-.12.89,13.62-6.4,27.88-4.76,42-4,11.89.61,23.79,1.24,35.49-1.6,5.13-1.24,10.1-3.09,15.74-4.85-7,4.21-14,7.2-21.43,8-10.27,1.05-20.65,1-31,1.6-7.32.43-14.63,1.18-21.94,1.79l.05,1.35c16.33,1.46,32.66,3.13,49,4.3A91.77,91.77,0,0,0,617.86,415a66.56,66.56,0,0,0,29-15.83,12.69,12.69,0,0,1,1.27-1,2.48,2.48,0,0,1,1.2-.48c-8.49,9.34-18.57,16.22-30.74,19.93-11.66,3.56-23.6,3.91-35.63,3.25-13.61-.75-27.21-2-40.83-2.31-6.25-.16-12.54,1.21-18.81,2a26.74,26.74,0,0,0-4,1.22c1.06.32,1.33.5,1.56.46,15.09-2.88,29.73.06,44.35,3.43,13,3,25.87,6.4,39,8.64,24.16,4.13,44.86-3.87,63-19.6,9.68-8.38,17.78-18.14,25.67-28.22-.57,1-1.08,2-1.72,2.95-8.69,12.47-18.26,24.11-30.27,33.61-18.27,14.44-38.72,20-61.64,15.15-11.62-2.49-23.12-5.59-34.66-8.44-13.8-3.4-27.75-4.79-41.86-2.5-5,.81-9.84,2.4-14.76,3.64l.12.79a4.46,4.46,0,0,0,1.35.08c18-4.41,35.05-1,51.74,5.86,10.59,4.35,21,9.12,31.83,12.88,23.32,8.12,45.76,4.69,67.34-6.47a135.2,135.2,0,0,0,28.19-18.87,3.18,3.18,0,0,1,2.56-.89c-3.74,3.12-7.48,6.22-11.21,9.35a109.73,109.73,0,0,1-39.25,21.57c-19,5.71-37.5,3.49-55.75-3.5-10.48-4-21-8.13-31.67-11.47-13.52-4.23-27.43-5.25-41.36-2.05a86.07,86.07,0,0,0-27.61,11.53c-9.69,6.26-18.94,13.19-28.39,19.84l.65,1.07c4.5-2.35,9.24-4.34,13.45-7.13,14.11-9.34,29.61-15.08,45.93-19A83,83,0,0,1,539.52,442c12.21.57,22.12,6.6,31.88,13.2,8.93,6,18,11.82,27.25,17.42a50.6,50.6,0,0,0,10.5,4.48C618.42,480.13,627.39,479.76,635.85,474.1ZM535.41,374.69c7.29-7.68,16.55-9.53,26.38-9.75,6.65-.14,13.3,0,19.94-.19a43.85,43.85,0,0,0,26.89-9.68,71.81,71.81,0,0,0,21.14-28.6c7.65-18.07,10.39-37.1,10.51-56.56.06-10.68-.35-21.36-4.2-31.56s-11.22-15.84-22-16.77a52,52,0,0,0-11.09.1,135.14,135.14,0,0,0-61.78,24C528.12,255,517.3,266.33,510.41,281c-5.36,11.43-7.38,23.29-1.29,34.94,3.19,6.12,7.77,11.56,12,17.08C530.56,345.28,538.86,357.84,535.41,374.69Zm-76,81.6c8-18.26,10.68-37.39,5.89-57.35-3.64-15.16-10.58-29-17.35-42.89-7.12-14.61-13.92-29.34-17.33-45.35-.91-4.29-1.49-8.65-2.31-13.49-5.79,10.53-10.65,20.85-13.52,32a7.5,7.5,0,0,0,.36,4.89,127.12,127.12,0,0,0,7.57,13.36c7.91,11.91,16.31,23.49,24,35.52,9.34,14.57,15.25,30.46,15,48C461.51,439.53,460.14,448.06,459.36,456.29ZM441.2,471.36c-.06,0,.21,0,.3-.17,16.81-27.43,17.71-55.25,1.58-83.23-6.86-11.9-14.37-23.41-21.47-35.17-3-5-5.76-10.15-8.69-15.33a3.73,3.73,0,0,0-.47.9,74.18,74.18,0,0,0,7.12,47.93c5.59,10.84,11.91,21.3,17.65,32.06,6.13,11.47,9.55,23.66,7.6,36.78C444,460.65,442.4,466.06,441.2,471.36Zm41.21-33c3.32-3.88,7.54-7,9.26-11.17,6.65-16.16,7-32.81,1.91-49.59-4.57-15.2-12.83-28.54-20.82-42-5.16-8.71-10.35-17.44-14.94-26.46-7-13.76-10.91-28.33-9.58-44a66.24,66.24,0,0,0-5.92,29.06c.27,13.38,3.76,26.07,9,38.22,7,16.18,14.67,32.07,21.7,48.23,5.45,12.52,9.41,25.53,9.87,39.31C483.12,425.81,482.62,431.76,482.41,438.35Zm90-268.17C545.66,188.59,529,213,527,245.57c8.09-4.72,16.32-9.61,24.65-14.31,1.7-1,2.89-1.85,3.43-3.88a37.3,37.3,0,0,1,10.71-17.29c5.5-5.27,11.31-10.23,16.9-15.42,8.87-8.22,10.34-21,18.36-29.74-27,14.81-47.44,34.91-53.89,66.4-2.47-9.52-1.15-18.55,2.35-27.34,3.78-9.53,9.61-17.8,16-25.69C567.77,175.56,570.09,172.88,572.37,170.18ZM586,479.93c-9.28-5.61-18.7-11.54-28.36-17.07-8.88-5.09-18-9.74-28.3-11.44a71.25,71.25,0,0,0-36,3.58c-6.85,2.44-13.44,5.63-20.15,8.48l.41,1c1.78-.31,3.55-.65,5.34-.94,16.56-2.66,33-2.38,49.22,2.27,11.08,3.18,22,7,33,10.39A83.5,83.5,0,0,0,586,479.93Zm71.66-117.37-.22-.89c-3.15.43-6.53.29-9.4,1.42-6.67,2.61-13.19,5.66-19.61,8.86-14.48,7.24-29.41,9.08-44.56,2.94-8.48-3.44-16.94-3.46-25.66-2.51-.64.07-1.24.4-1,.31,6.28,1.09,13.32,1.92,20.15,3.59,12.81,3.13,25.45,7.22,38.9,3.82a39.51,39.51,0,0,1-21.07,2.35c-8.21-1.15-16.35-2.8-24.54-4.11-7.69-1.22-15.39-1.73-23,.49-6,1.73-11,4.87-14.51,10.18,11.55-8.25,24.46-9.31,37.9-7.27,8.63,1.32,17.19,3.08,25.82,4.39,7.41,1.13,14.93,1.34,21.81-2.1a84.51,84.51,0,0,0,13.75-8.77C640,369.37,647.5,363.53,657.61,362.56Z"></path>
    <path class="cls-12" d="M642.18,304.15c1.19-9,4.29-17.21,9.91-24.08,7.76-9.51,16.15-18.51,24.37-27.65,9.07-10.1,16.8-20.91,19.28-34.66a3.7,3.7,0,0,0-.14-2.08c-.32.71-.68,1.4-1,2.12-4.21,11.34-12.27,19.63-21.31,27.19-4.84,4.06-10,7.92-14.17,12.57s-7.38,10.07-10.59,15.78c-.06-.87-.17-1.74-.16-2.61.14-13.65,6.78-23.94,16.58-32.79a201.47,201.47,0,0,0,16.12-16.16c4.45-5,6.82-11.29,7.67-18.1-.4.81-.83,1.61-1.2,2.44-4.11,9.25-11.08,16-18.91,22.12-3.44,2.67-6.9,5.35-10.12,8.28a33.05,33.05,0,0,0-10,17.11l-1.12-.34c.86-3.72,1.35-7.56,2.65-11.11,3.08-8.42,8.47-15.56,14.43-22,14-15.15,20.89-33.15,23.32-53.27,1.29-10.67,3.45-21.12,9.32-30.41a12.27,12.27,0,0,1,2-2.48c-3.62,10.57.65,19.8,4.62,29,4.45,10.34,8.61,20.74,9.4,32.13,1.48,21.31-5.6,39.54-20.54,54.53-8.45,8.48-17.61,16.27-26.53,24.26-9.64,8.64-18.55,17.8-23.4,30.14C642.7,304.12,642.53,304.11,642.18,304.15Z"></path>
    <path class="cls-13" d="M641.67,323.75c15.83-10.1,33.42-13.33,51.78-13.49a15.26,15.26,0,0,1,7.14,1.75c3.8,2.08,3.66,6.62-.2,8.52a13.75,13.75,0,0,1-6.28,1.26c-6.21-.16-12.41-.68-18.61-1-3.49-.2-7-.45-10.46-.51-12.33-.2-23.11,3.43-31.39,13.13,2.87-9.79,8.73-17.46,16.3-23.93,11.1-9.48,24.24-15.37,37.44-21.13,7.31-3.2,14.5-6.58,20.27-12.33,1.41-1.4,3.45-2.85,5.15-1.15a6.33,6.33,0,0,1,1.56,5.1c-1.75,6.66-6.66,10.73-12.86,12.86a154.41,154.41,0,0,1-18.28,4.79c-13.22,2.79-25.52,7.42-35.61,16.76a79,79,0,0,0-7,7.43c17.19-15.7,38.3-22,60.54-25.4a15.43,15.43,0,0,1,7.88,1.09c1.4.59,3,3.09,2.8,4.52-.2,1.63-2,3.55-3.6,4.39-1.83,1-4.2,1-6.36,1.22-11.27,1-22.61,1.62-33.82,3.13A44.87,44.87,0,0,0,641.67,323.75Z"></path>
    <path class="cls-14" d="M647.48,233.66l3.43-3.81c11.82-13.16,17.1-28.93,18-46.28.63-12,.48-24,1.15-35.93.57-10.16,3.7-19.46,11.54-26.6.48-.44.94-.91,1.45-1.31,4.23-3.33,8.54-3.7,11.62-1s3.6,7.69,1.13,12c-5.63,9.8-8.13,20.64-10.64,31.47-3.18,13.71-6.17,27.46-12.1,40.33A76.32,76.32,0,0,1,647.48,233.66Z"></path>
    <path class="cls-15" d="M640.64,317.65c1.44-5.83,4.89-10.38,9.08-14.34,6.17-5.84,12.55-11.45,18.85-17.15a52.84,52.84,0,0,0,12.22-16.4c3.79-7.86,9.56-13.93,16.39-19.2a141.45,141.45,0,0,0,11.41-9.78,43,43,0,0,0,10.13-14.61c-.28,5.52-.24,11.08-.9,16.56-1.37,11.42-4.7,22.1-12.86,30.77a48.38,48.38,0,0,1-21.05,13.21c-8.62,2.75-17.07,5.92-24.53,11.28a69.65,69.65,0,0,0-17.06,17.4C641.79,316.17,641.2,316.9,640.64,317.65Z"></path>
    <path class="cls-16" d="M708.71,316.43c-3.19,7.43-9.15,11.62-16.69,13.14a215.18,215.18,0,0,1-21.67,2.88c-9.55.94-19.18,1.51-28.1,5.44a70.55,70.55,0,0,0-11.9,7.12c11.3-6.41,23.66-7.07,36.14-7.22,4.14-.05,8.36.19,12.4-.52,5.59-1,11-2.75,15.87-4A23.48,23.48,0,0,1,679.43,342c-7.21.94-14.53,1.23-21.81,1.51-9.76.38-19.46,1.07-28.22,5.81-3.87,2.09-7.29,5-11.11,7.38a57.26,57.26,0,0,1,13-17.22c12.22-11.24,26.54-16.35,43.16-14.79,2.6.25,5.22.39,7.84.52C692.2,325.69,701.52,324.39,708.71,316.43Z"></path>
    <path class="cls-13" d="M647.09,224.84c3.36-5.63,7.07-11.26,10.2-17.21,6.41-12.22,7-25.42,6.21-38.89-.7-11.74-1.47-23.52-1.17-35.25.32-12.28,3.59-23.93,11.88-33.57a22.18,22.18,0,0,1,3.61-3.3c3.38-2.49,6.88-2.41,9.15.09,2.63,2.89,2.45,6.77-.62,10-2.33,2.44-4.79,4.76-7.2,7.12C668.62,124.12,665,137,665.23,151.31c.12,8.39.34,16.78.84,25.15,1.13,18.95-5.72,34.72-18.62,48.2A.75.75,0,0,1,647.09,224.84Z"></path>
    <path class="cls-13" d="M662,345.19c-8.74,1.6-16.2,6-23.47,10.82-10.68,7.08-22.08,12.22-35,13.28-.54,0-1.08.12-1.62.13-.2,0-.4-.16,0,0,7.4-4.86,15.08-9.89,22.74-14.94C635.88,347,648.6,344.91,662,345.19Z"></path>
    <path class="cls-14" d="M642.82,307.75a47,47,0,0,1,12.95-19.9c7.33-6.94,14.93-13.59,22.87-20.77A50,50,0,0,1,668.17,283c-5.09,5-10.75,9.51-15.93,14.46C649,300.53,646.13,304.08,642.82,307.75Z"></path>
    <path class="cls-17" d="M535.41,374.69c3.45-16.85-4.85-29.41-14.27-41.65-4.25-5.52-8.83-11-12-17.08-6.09-11.65-4.07-23.51,1.29-34.94,6.89-14.69,17.71-26.07,30.77-35.34a135.14,135.14,0,0,1,61.78-24,52,52,0,0,1,11.09-.1c10.8.93,18.17,6.56,22,16.77s4.26,20.88,4.2,31.56c-.12,19.46-2.86,38.49-10.51,56.56a71.81,71.81,0,0,1-21.14,28.6,43.85,43.85,0,0,1-26.89,9.68c-6.64.2-13.29.05-19.94.19C552,365.16,542.7,367,535.41,374.69Zm2.64-9.27a23.34,23.34,0,0,0-.24-16.9,189.75,189.75,0,0,0-9-18.49c-5.58-10.18-8.47-20.78-4.36-32,7.86-21.53,23.39-35.24,45.44-40.66,28.18-6.93,50.57,17.25,50.17,42.12-.4,24.67-22.23,50.47-46.68,54.62-5.9,1-11.78,2.18-17.57,3.67-4.66,1.2-8.18,3.82-9.24,5.4,6.06-.37,12.85-.89,19.66-1.17,3.81-.17,7.63.12,11.45.08,13.6-.16,24.86-5.67,34.37-15.15a67.74,67.74,0,0,0,15.12-23.07c9-22.64,12.11-46,6.93-69.94-4.07-18.85-17.68-27.78-36.71-25.11a78,78,0,0,0-7.7,1.48,155.35,155.35,0,0,0-46.16,20.06c-10,6.34-18.89,13.68-25.83,23.23-9.24,12.71-12.38,26.6-5.4,41.22,3.29,6.9,8.18,13.09,12.69,19.37C531.77,343.58,537.67,353.26,538.05,365.42Zm2.4,0c4.13-2.9,7.37-6.13,11.28-7.72a106.29,106.29,0,0,1,19-5.59c25.69-5.11,42.78-28.62,44.36-51.16,2.07-29.56-24.29-49.14-51.71-38.05-11.49,4.64-20.62,12.48-27.85,22.47-10.83,15-13.06,30.48-2.9,46.93C538.8,342.21,543.69,352.67,540.45,365.39Z"></path>
    <path class="cls-18" d="M459.36,456.29c.78-8.23,2.15-16.76,2.29-25.32.29-17.54-5.62-33.43-15-48-7.71-12-16.11-23.61-24-35.52a127.12,127.12,0,0,1-7.57-13.36,7.5,7.5,0,0,1-.36-4.89c2.87-11.14,7.73-21.46,13.52-32,.82,4.84,1.4,9.2,2.31,13.49,3.41,16,10.21,30.74,17.33,45.35,6.77,13.9,13.71,27.73,17.35,42.89C470,418.9,467.35,438,459.36,456.29Z"></path>
    <path class="cls-19" d="M441.2,471.36c1.2-5.3,2.8-10.71,3.62-16.23,1.95-13.12-1.47-25.31-7.6-36.78-5.74-10.76-12.06-21.22-17.65-32.06a74.18,74.18,0,0,1-7.12-47.93,3.73,3.73,0,0,1,.47-.9c2.93,5.18,5.67,10.34,8.69,15.33,7.1,11.76,14.61,23.27,21.47,35.17,16.13,28,15.23,55.8-1.58,83.23C441.41,471.34,441.14,471.39,441.2,471.36Z"></path>
    <path class="cls-20" d="M482.41,438.35c.21-6.59.71-12.54.51-18.47-.46-13.78-4.42-26.79-9.87-39.31-7-16.16-14.69-32.05-21.7-48.23-5.27-12.15-8.76-24.84-9-38.22a66.24,66.24,0,0,1,5.92-29.06c-1.33,15.7,2.59,30.27,9.58,44,4.59,9,9.78,17.75,14.94,26.46,8,13.5,16.25,26.84,20.82,42,5.05,16.78,4.74,33.43-1.91,49.59C490,431.34,485.73,434.47,482.41,438.35Zm3.57-9.46a75.7,75.7,0,0,0,2.43-25.07c-1.31-24.4-8.83-46.88-21-68-5.38-9.32-10.6-18.78-15.22-28.5-2.56-5.39-3.73-11.44-5.52-17.16,0,.63-.11,1.35-.12,2.07-.21,19,6.85,35.85,15.56,52.3,6.41,12.1,12.74,24.34,17.8,37C485.92,396.64,487.14,412.65,486,428.89Zm3.25-3.24c9.49-25.69,3.93-49.46-9.34-72.23C489.41,376.67,493.74,400.6,489.23,425.65Z"></path>
    <path class="cls-21" d="M572.37,170.18c-2.28,2.7-4.6,5.38-6.84,8.12-6.41,7.89-12.24,16.16-16,25.69-3.5,8.79-4.82,17.82-2.35,27.34,6.45-31.49,26.88-51.59,53.89-66.4-8,8.77-9.49,21.52-18.36,29.74-5.59,5.19-11.4,10.15-16.9,15.42a37.3,37.3,0,0,0-10.71,17.29c-.54,2-1.73,2.92-3.43,3.88-8.33,4.7-16.56,9.59-24.65,14.31C529,213,545.66,188.59,572.37,170.18Z"></path>
    <path class="cls-22" d="M586,479.93a83.5,83.5,0,0,1-24.83-3.74c-11-3.38-21.93-7.21-33-10.39-16.18-4.65-32.66-4.93-49.22-2.27-1.79.29-3.56.63-5.34.94l-.41-1c6.71-2.85,13.3-6,20.15-8.48a71.25,71.25,0,0,1,36-3.58c10.27,1.7,19.42,6.35,28.3,11.44C567.25,468.39,576.67,474.32,586,479.93Zm-100.74-20a8.07,8.07,0,0,0,1.15.09c23.92-4.21,46.56,1,68.79,9.3,4.49,1.68,9.05,3.2,13.57,4.8C540.94,452.81,512.09,448.62,485.21,459.94Z"></path>
    <path class="cls-23" d="M657.61,362.56c-10.11,1-17.63,6.81-25.24,12.7A84.51,84.51,0,0,1,618.62,384c-6.88,3.44-14.4,3.23-21.81,2.1-8.63-1.31-17.19-3.07-25.82-4.39-13.44-2-26.35-1-37.9,7.27,3.51-5.31,8.52-8.45,14.51-10.18,7.64-2.22,15.34-1.71,23-.49,8.19,1.31,16.33,3,24.54,4.11a39.51,39.51,0,0,0,21.07-2.35c-13.45,3.4-26.09-.69-38.9-3.82-6.83-1.67-13.87-2.5-20.15-3.59-.27.09.33-.24,1-.31,8.72-.95,17.18-.93,25.66,2.51C599,381,613.9,379.19,628.38,372c6.42-3.2,12.94-6.25,19.61-8.86,2.87-1.13,6.25-1,9.4-1.42Z"></path>
    <path class="cls-24" d="M538.05,365.42c-.38-12.16-6.28-21.84-13-31.26-4.51-6.28-9.4-12.47-12.69-19.37-7-14.62-3.84-28.51,5.4-41.22,6.94-9.55,15.86-16.89,25.83-23.23a155.35,155.35,0,0,1,46.16-20.06,78,78,0,0,1,7.7-1.48c19-2.67,32.64,6.26,36.71,25.11,5.18,23.94,2.12,47.3-6.93,69.94a67.74,67.74,0,0,1-15.12,23.07c-9.51,9.48-20.77,15-34.37,15.15-3.82,0-7.64-.25-11.45-.08-6.81.28-13.6.8-19.66,1.17,1.06-1.58,4.58-4.2,9.24-5.4,5.79-1.49,11.67-2.67,17.57-3.67,24.45-4.15,46.28-29.95,46.68-54.62.4-24.87-22-49.05-50.17-42.12-22,5.42-37.58,19.13-45.44,40.66-4.11,11.24-1.22,21.84,4.36,32a189.75,189.75,0,0,1,9,18.49A23.34,23.34,0,0,1,538.05,365.42Z"></path>
    <path class="cls-25" d="M540.45,365.39c3.24-12.72-1.65-23.18-7.79-33.12-10.16-16.45-7.93-31.94,2.9-46.93,7.23-10,16.36-17.83,27.85-22.47,27.42-11.09,53.78,8.49,51.71,38.05-1.58,22.54-18.67,46.05-44.36,51.16a106.29,106.29,0,0,0-19,5.59C547.82,359.26,544.58,362.49,540.45,365.39Zm5.77-10.72c5.42-3.84,9.85-5.18,19-6.61,6-.94,12.27-1.52,17.82-3.75,16.26-6.56,28.28-27.06,27.49-45.5-.93-21.5-18.35-35.95-39.52-32.11-14.21,2.57-24.87,11-33,22.77-5.84,8.48-9.48,17.75-6.62,28,1.63,5.87,4.78,11.4,7.8,16.77C542.8,340.57,546.14,346.84,546.22,354.67Z"></path>
    <path class="cls-21" d="M486,428.89c1.16-16.24-.06-32.25-6.07-47.3-5.06-12.7-11.39-24.94-17.8-37-8.71-16.45-15.77-33.26-15.56-52.3,0-.72.08-1.44.12-2.07,1.79,5.72,3,11.77,5.52,17.16,4.62,9.72,9.84,19.18,15.22,28.5,12.17,21.1,19.69,43.58,21,68A75.7,75.7,0,0,1,486,428.89Z"></path>
    <path class="cls-21" d="M489.23,425.65c4.51-25,.18-49-9.34-72.23C493.16,376.19,498.72,400,489.23,425.65Z"></path>
    <path class="cls-14" d="M485.21,459.94c26.88-11.32,55.73-7.13,83.51,14.19-4.52-1.6-9.08-3.12-13.57-4.8-22.23-8.34-44.87-13.51-68.79-9.3A8.07,8.07,0,0,1,485.21,459.94Z"></path>
    <path class="cls-26" d="M546.22,354.67c-.08-7.83-3.42-14.1-7-20.42-3-5.37-6.17-10.9-7.8-16.77-2.86-10.26.78-19.53,6.62-28,8.1-11.76,18.76-20.2,33-22.77,21.17-3.84,38.59,10.61,39.52,32.11.79,18.44-11.23,38.94-27.49,45.5-5.55,2.23-11.82,2.81-17.82,3.75C556.07,349.49,551.64,350.83,546.22,354.67Zm40.71-48.24c-5.12-7.4-11.42-12.2-19.75-13.73-12.79-2.33-27.44,7-31.13,19.45a17.82,17.82,0,0,0,2.29,15.33c3.8,5.91,9.72,7.16,14.76,3.27,4.81-3.7,4.81-3.7,5.72,2.3,1.43,9.51,9.2,14.18,18.25,11A19.79,19.79,0,0,0,588,335.15C593.75,325.14,591.66,315.5,586.93,306.43Z"></path>
    <path class="cls-27" d="M586.93,306.43c4.73,9.07,6.82,18.71,1.06,28.72A19.79,19.79,0,0,1,577.07,344c-9.05,3.2-16.82-1.47-18.25-11-.91-6-.91-6-5.72-2.3-5,3.89-11,2.64-14.76-3.27a17.82,17.82,0,0,1-2.29-15.33c3.69-12.47,18.34-21.78,31.13-19.45C575.51,294.23,581.81,299,586.93,306.43Z"></path>
  </g>
</svg>
